<svg width="262" height="23" viewBox="0 0 262 23" fill="none" xmlns="http://www.w3.org/2000/svg">
<g clip-path="url(#clip0_613_7534)">
<path fill-rule="evenodd" clip-rule="evenodd" d="M41.0902 17.2569H29.8075V18.2902H29.7974C29.7974 20.0525 28.4449 21.4902 26.7865 21.4902C25.1287 21.4902 23.7762 20.0532 23.7762 18.2902V17.2569H8.17154C4.43292 17.2569 1.38477 13.3811 1.38477 8.62816C1.38477 3.87644 4.43292 0 8.17154 0H41.0902C44.8288 0 47.8789 3.87644 47.8789 8.62816C47.8789 13.3805 44.8288 17.2569 41.0902 17.2569Z" fill="#252C69"/>
<path fill-rule="evenodd" clip-rule="evenodd" d="M28.2585 18.289C28.2585 19.1488 27.5951 19.8531 26.7855 19.8531C25.9759 19.8531 25.3125 19.1488 25.3125 18.289V8.7343H25.3157C25.3352 5.15045 28.0876 2.23633 31.4618 2.23633C34.8467 2.23633 37.6092 5.1702 37.6092 8.76763C37.6092 12.3651 34.8467 15.2989 31.4618 15.2989C31.05 15.2989 30.6477 15.2563 30.258 15.1736L30.2587 15.1718C29.5921 15.0243 29.0896 14.4446 29.0896 13.6403C29.0896 12.8348 29.7498 12.0799 30.5575 12.0799C30.6572 12.0799 30.7549 12.0904 30.8482 12.1108H30.8495L30.8564 12.1126C31.0532 12.1527 31.2556 12.1719 31.4624 12.1719C33.2274 12.1719 34.6676 10.6441 34.6676 8.76825C34.6676 6.89299 33.2274 5.36464 31.4624 5.36464C29.7088 5.36464 28.2755 6.87448 28.2598 8.73492H28.2585C28.2579 11.9219 28.2585 15.1014 28.2585 18.289Z" fill="white"/>
<path fill-rule="evenodd" clip-rule="evenodd" d="M21.113 13.6329C21.113 14.494 21.7757 15.1971 22.586 15.1971C23.3957 15.1971 24.0584 14.494 24.0584 13.6329V8.73368H24.0546C24.0369 5.15045 21.2826 2.23633 17.9097 2.23633C14.523 2.23633 11.7617 5.1702 11.7617 8.76763C11.7617 12.3651 14.523 15.2989 17.9097 15.2989C18.3215 15.2989 18.7232 15.2563 19.1129 15.1736V15.1718C19.7794 15.0243 20.2826 14.4446 20.2826 13.6403C20.2826 12.8348 19.6223 12.0793 18.8133 12.0793C18.7143 12.0793 18.6166 12.0898 18.5226 12.1095C18.5201 12.1101 18.5176 12.112 18.5176 12.112C18.3183 12.1521 18.1159 12.1712 17.9091 12.1712C16.1429 12.1712 14.7039 10.6435 14.7039 8.76763C14.7039 6.89238 16.1429 5.36402 17.9091 5.36402C19.6627 5.36402 21.0954 6.87386 21.1111 8.7343L21.113 8.73368C21.1136 11.9225 21.113 10.446 21.113 13.6329Z" fill="white"/>
<path fill-rule="evenodd" clip-rule="evenodd" d="M155.406 17.4173C155.656 16.7741 155.893 16.1452 156.107 15.5279C156.328 14.9063 156.532 14.3045 156.719 13.7131L157.24 12.1113C157.441 11.4681 157.581 11.0255 157.654 10.7904C157.728 10.5546 157.781 10.3712 157.811 10.2472C157.907 9.87001 157.938 9.57805 157.909 9.3725C157.876 9.16633 157.789 9.0651 157.646 9.0651C157.543 9.0651 157.314 9.09473 156.96 9.15892C156.61 9.2188 156.31 9.26386 156.073 9.28299L156.287 8.72437C157.127 8.3429 157.929 8.00957 158.694 7.72563C159.459 7.44107 160.198 7.20527 160.904 7.01454C160.995 7.08984 161.072 7.16083 161.128 7.23552C161.187 7.3065 161.232 7.38798 161.271 7.48613C161.246 7.58674 161.218 7.7102 161.188 7.85649C161.16 8.00278 161.138 8.10031 161.128 8.14105C161.098 8.25339 161.068 8.36203 161.037 8.47067C161.004 8.58239 160.973 8.69535 160.937 8.8114L161.734 8.27623C161.792 8.23055 161.896 8.15216 162.039 8.04352C162.55 7.65094 163.023 7.33675 163.463 7.10095C163.579 7.07503 163.694 7.05342 163.803 7.03676C163.912 7.02256 164.017 7.01454 164.114 7.01454C164.291 7.01454 164.48 7.04478 164.675 7.10034C164.871 7.16083 165.076 7.25095 165.291 7.37811L163.655 9.941C163.367 9.6336 163.111 9.41015 162.881 9.27127C162.648 9.13238 162.436 9.0651 162.246 9.0651C162.06 9.0651 161.839 9.12868 161.589 9.25707C161.335 9.38423 161.03 9.58484 160.672 9.86261L159.977 12.044C159.945 12.1409 159.875 12.365 159.764 12.7249C159.336 14.0989 158.92 15.3705 158.523 16.5421C157.983 16.7741 157.456 16.9655 156.939 17.1106C156.429 17.2562 155.918 17.3587 155.406 17.4173ZM87.0122 17.4636C87.4435 16.2723 87.8981 14.9261 88.3792 13.4224C88.4568 13.1705 88.5123 12.9915 88.5476 12.8835L89.0628 11.2854C89.0703 11.2545 89.0798 11.2144 89.0936 11.1613C89.2437 10.6793 89.3446 10.3305 89.3976 10.12C89.4997 9.71632 89.5174 9.43669 89.4556 9.28052C89.3925 9.12189 89.2368 9.04349 88.9902 9.04349C88.8925 9.04349 88.7393 9.06263 88.5331 9.09905C88.3218 9.1367 88.0393 9.19658 87.6793 9.28731L87.8748 8.68054C88.6239 8.36265 89.3932 8.05957 90.1915 7.77192C90.9929 7.48675 91.8297 7.2133 92.7036 6.95219C92.7736 6.9812 92.8348 7.01886 92.8865 7.06824C92.942 7.11268 92.995 7.18058 93.0467 7.27008C92.9439 7.64847 92.8348 8.02562 92.7207 8.39228C92.6097 8.76264 92.4918 9.11757 92.3694 9.46262L94.3589 8.52746C94.4913 8.46326 94.6849 8.36635 94.9371 8.24228C96.5879 7.44971 97.6492 7.00775 98.1234 6.92935C98.2343 6.95219 98.3415 6.98923 98.4361 7.0454C98.5326 7.09725 98.619 7.17256 98.689 7.27008C98.6757 7.31823 98.6524 7.40465 98.6158 7.52008C98.322 8.46326 98.1 9.17868 97.9424 9.66138L97.0627 12.3656C97.0552 12.3965 97.0331 12.4681 96.9972 12.5829C96.9618 12.6952 96.9347 12.7897 96.9171 12.8601C96.7506 13.5181 96.7115 13.994 96.8036 14.2859C96.8956 14.5779 97.1239 14.7236 97.4884 14.7236C97.757 14.7236 98.3182 14.5069 99.1657 14.0761L99.264 14.023L99.3328 14.7686C98.5742 15.1909 97.7702 15.6174 96.9278 16.0439C96.0866 16.4705 95.1767 16.9124 94.2038 17.3661C94.065 17.3427 93.9389 17.3124 93.8242 17.2791C93.7094 17.242 93.6047 17.197 93.5164 17.1439C93.3714 16.9124 93.2901 16.647 93.2806 16.347C93.2686 16.0489 93.3273 15.6483 93.4521 15.1507C93.4559 15.1353 93.4729 15.0828 93.5051 14.9847C93.5347 14.8915 93.6148 14.6483 93.7415 14.252L94.5064 11.8749C94.6369 11.4564 94.7505 11.0897 94.845 10.7675C94.9403 10.4459 94.9964 10.2515 95.014 10.1848C95.0916 9.87742 95.0985 9.65335 95.0323 9.50706C94.9718 9.36139 94.8387 9.28731 94.6319 9.28731C94.4869 9.28731 94.2908 9.33546 94.048 9.43608C93.8008 9.53237 93.4048 9.72434 92.8594 10.0126L92.0352 10.462C91.6708 11.5422 91.3309 12.6027 91.0017 13.6384C90.677 14.6748 90.3642 15.6927 90.066 16.6853L87.0122 17.4636ZM208.779 17.4735C208.982 16.8001 209.232 16.0161 209.527 15.1205C209.82 14.2285 209.989 13.7057 210.032 13.56L210.566 11.9064C210.607 11.7521 210.672 11.536 210.755 11.27C210.925 10.7206 211.037 10.362 211.077 10.204C211.188 9.75212 211.218 9.43793 211.167 9.27188C211.116 9.10522 210.949 9.02127 210.674 9.02127C210.544 9.02127 210.37 9.03423 210.159 9.05893C209.95 9.08238 209.699 9.1225 209.417 9.17497L209.539 8.5719C210.311 8.27376 211.089 7.9929 211.879 7.73427C212.67 7.47625 213.473 7.23675 214.286 7.01577L214.741 7.2028L214.687 7.42008C214.633 7.63427 214.563 7.89908 214.47 8.22068C214.379 8.54289 214.27 8.92066 214.147 9.35028L215.567 8.704C215.64 8.66634 215.751 8.61758 215.895 8.54968C217.348 7.86945 218.601 7.35342 219.655 7.01577C219.742 7.0312 219.823 7.06021 219.897 7.10157C219.974 7.14725 220.051 7.21762 220.129 7.31144C220.068 7.55526 219.989 7.83365 219.894 8.14599C219.8 8.45894 219.668 8.86078 219.513 9.35028L221.403 8.47499C221.47 8.44474 221.604 8.38425 221.785 8.3003C222.854 7.79723 223.861 7.36761 224.801 7.01577C224.957 7.05404 225.08 7.10404 225.164 7.17009C225.247 7.2349 225.328 7.33058 225.392 7.45403C225.278 7.87686 225.154 8.31018 225.018 8.74844C224.884 9.18608 224.73 9.65767 224.554 10.1626L224.081 11.6298C224.003 11.8576 223.926 12.0848 223.863 12.2996C223.799 12.5175 223.736 12.7434 223.68 12.9693C223.535 13.5588 223.489 14.0304 223.544 14.3761C223.598 14.7211 223.743 14.8958 223.979 14.8958C224.088 14.8958 224.295 14.8328 224.594 14.7205C224.893 14.6069 225.378 14.3903 226.04 14.0841L225.916 14.7427C225.109 15.2402 224.297 15.7149 223.484 16.1643C222.673 16.6137 221.846 17.0476 221.012 17.4636C220.799 17.4019 220.642 17.3587 220.541 17.3241C220.439 17.2939 220.356 17.2599 220.287 17.2315C220.176 16.8525 220.118 16.4982 220.115 16.1797C220.111 15.8587 220.152 15.5267 220.234 15.1909C220.267 15.0563 220.356 14.7569 220.503 14.3045C220.648 13.8508 220.765 13.5008 220.846 13.2526L221.217 12.1113C221.338 11.7335 221.447 11.3879 221.538 11.0829C221.627 10.778 221.692 10.5558 221.721 10.4354C221.786 10.1749 221.792 9.95643 221.741 9.78792C221.688 9.6194 221.589 9.53669 221.444 9.53669C221.285 9.53669 221.121 9.55953 220.955 9.59286C220.791 9.62619 220.576 9.69718 220.326 9.79965C220.155 9.87372 219.976 9.95643 219.788 10.0459C219.602 10.1385 219.409 10.2367 219.211 10.3385L218.517 12.4304C218.489 12.5199 218.316 13.0483 218.008 14.0168C217.702 14.9785 217.402 15.8908 217.11 16.7402C216.673 16.9007 216.213 17.042 215.742 17.1556C215.271 17.2692 214.765 17.3723 214.227 17.4513C214.539 16.355 214.899 15.2125 215.297 14.031C215.348 13.8804 215.389 13.7687 215.41 13.7131L215.869 12.2237C215.962 11.9292 216.08 11.5786 216.211 11.1762C216.344 10.7706 216.423 10.5218 216.443 10.436C216.527 10.0928 216.559 9.83853 216.535 9.6799C216.513 9.52126 216.431 9.43978 216.293 9.43978C216.025 9.43978 215.68 9.51756 215.271 9.66508C214.861 9.81199 214.371 10.0379 213.806 10.3385L213.162 12.3212C213.138 12.3885 213.103 12.5014 213.055 12.6613C212.62 14.0347 212.166 15.3631 211.69 16.6507C211.202 16.8414 210.713 17.0062 210.228 17.1439C209.742 17.2834 209.261 17.3914 208.779 17.4735ZM64.6763 15.0643C63.9681 15.5544 63.2777 15.9878 62.6074 16.3735C61.9371 16.7556 61.2712 17.0883 60.6179 17.3661C60.4962 17.3581 60.3771 17.3427 60.2636 17.3161C60.1507 17.2902 60.0359 17.2562 59.9249 17.2118C59.6847 16.7365 59.5359 16.284 59.4703 15.8532C59.406 15.4192 59.4318 14.989 59.5403 14.5588C59.8089 13.4921 60.1305 12.5082 60.5032 11.6138C60.8765 10.7194 61.2384 10.049 61.594 9.60336C62.236 9.18485 62.9536 8.76634 63.7531 8.3466C64.5489 7.92747 65.3989 7.51205 66.2993 7.10034C66.5225 7.067 66.7086 7.03614 66.8631 7.01824C67.0144 6.99972 67.1474 6.9917 67.2559 6.9917C67.8335 6.9917 68.4048 7.05651 68.9729 7.17935C69.5411 7.30218 70.0632 7.48304 70.538 7.71452L69.5392 8.49227C69.251 9.17374 68.9963 9.82434 68.7756 10.4459C68.5593 11.0675 68.3739 11.6768 68.2238 12.2755C67.9716 13.2749 67.8442 13.986 67.8448 14.4008C67.8493 14.8162 67.9697 15.0267 68.2087 15.0267C68.3676 15.0267 69.0322 14.7347 70.2025 14.1538L70.3703 14.0637L70.1767 14.831C69.1091 15.5458 68.1778 16.11 67.3782 16.518C66.5818 16.926 65.8396 17.2334 65.1467 17.4383C65.0268 17.371 64.9146 17.297 64.8062 17.2106C64.7027 17.1211 64.5949 17.0161 64.4814 16.892C64.4934 16.6229 64.5167 16.3347 64.547 16.0322C64.5817 15.7297 64.6245 15.4081 64.6763 15.0643ZM64.8761 14.144C65.233 12.9496 65.542 11.9502 65.8094 11.1428C66.073 10.3348 66.3252 9.62743 66.5585 9.02127C66.3491 8.8756 66.1165 8.76264 65.868 8.68795C65.6196 8.60894 65.3579 8.57128 65.0836 8.57128C64.622 8.57128 64.1983 8.90091 63.8136 9.56015C63.4258 10.2175 63.0607 11.2323 62.7152 12.607C62.5418 13.2946 62.492 13.8668 62.5708 14.3242C62.6484 14.7798 62.8104 15.0069 63.0601 15.0069C63.1547 15.0069 63.2783 14.9779 63.4321 14.9143C63.5835 14.8544 63.789 14.7538 64.0469 14.6156L64.8761 14.144ZM81.5306 15.0643C80.8225 15.5544 80.1327 15.9878 79.4618 16.3735C78.7915 16.7556 78.1262 17.0883 77.473 17.3661C77.3513 17.3581 77.2321 17.3427 77.1186 17.3161C77.0057 17.2902 76.8909 17.2562 76.7793 17.2118C76.5391 16.7365 76.3896 16.284 76.3247 15.8532C76.2616 15.4192 76.2869 14.989 76.3947 14.5588C76.6633 13.4921 76.9862 12.5082 77.3588 11.6138C77.7321 10.7194 78.0928 10.049 78.4497 9.60336C79.0904 9.18485 79.8079 8.76634 80.6075 8.3466C81.4039 7.92747 82.2539 7.51205 83.1543 7.10034C83.3776 7.067 83.5636 7.03614 83.7174 7.01824C83.8694 6.99972 84.0018 6.9917 84.1109 6.9917C84.6885 6.9917 85.2604 7.05651 85.8286 7.17935C86.3955 7.30218 86.9176 7.48304 87.393 7.71452L86.3948 8.49227C86.106 9.17374 85.8506 9.82434 85.6306 10.4459C85.4143 11.0675 85.2283 11.6768 85.0782 12.2755C84.826 13.2749 84.6986 13.986 84.6999 14.4008C84.7049 14.8162 84.8247 15.0267 85.0631 15.0267C85.222 15.0267 85.8872 14.7347 87.0575 14.1538L87.2246 14.0637L87.0311 14.831C85.9635 15.5458 85.0328 16.11 84.2326 16.518C83.4356 16.926 82.694 17.2334 82.001 17.4383C81.8806 17.371 81.7696 17.297 81.6612 17.2106C81.5565 17.1211 81.4493 17.0161 81.3358 16.892C81.3478 16.6229 81.3705 16.3347 81.4014 16.0322C81.4361 15.7297 81.4789 15.4081 81.5306 15.0643ZM81.7312 14.144C82.0874 12.9496 82.3964 11.9502 82.6638 11.1428C82.928 10.3348 83.1796 9.62743 83.4135 9.02127C83.2042 8.8756 82.9715 8.76264 82.7224 8.68795C82.4746 8.60894 82.2129 8.57128 81.9393 8.57128C81.4777 8.57128 81.0527 8.90091 80.668 9.56015C80.2802 10.2175 79.9158 11.2323 79.5696 12.607C79.3962 13.2946 79.3464 13.8668 79.4252 14.3242C79.5027 14.7798 79.6648 15.0069 79.9139 15.0069C80.0091 15.0069 80.1333 14.9779 80.2872 14.9143C80.4385 14.8544 80.6428 14.7538 80.9013 14.6156L81.7312 14.144ZM111.428 15.0643C110.721 15.5544 110.03 15.9878 109.359 16.3735C108.689 16.7556 108.024 17.0883 107.37 17.3661C107.249 17.3581 107.129 17.3427 107.016 17.3161C106.903 17.2902 106.789 17.2562 106.677 17.2118C106.437 16.7365 106.287 16.284 106.222 15.8532C106.159 15.4192 106.183 14.989 106.292 14.5588C106.561 13.4921 106.883 12.5082 107.256 11.6138C107.63 10.7194 107.991 10.049 108.347 9.60336C108.988 9.18485 109.706 8.76634 110.505 8.3466C111.301 7.92747 112.152 7.51205 113.051 7.10034C113.275 7.067 113.461 7.03614 113.614 7.01824C113.766 6.99972 113.899 6.9917 114.009 6.9917C114.586 6.9917 115.158 7.05651 115.726 7.17935C116.292 7.30218 116.814 7.48304 117.291 7.71452L116.292 8.49227C116.004 9.17374 115.748 9.82434 115.528 10.4459C115.311 11.0675 115.126 11.6768 114.975 12.2755C114.724 13.2749 114.596 13.986 114.598 14.4008C114.601 14.8162 114.722 15.0267 114.961 15.0267C115.12 15.0267 115.785 14.7347 116.955 14.1538L117.122 14.0637L116.929 14.831C115.861 15.5458 114.93 16.11 114.13 16.518C113.333 16.926 112.591 17.2334 111.899 17.4383C111.778 17.371 111.667 17.297 111.558 17.2106C111.454 17.1211 111.347 17.0161 111.233 16.892C111.245 16.6229 111.268 16.3347 111.299 16.0322C111.334 15.7297 111.377 15.4081 111.428 15.0643ZM111.629 14.144C111.985 12.9496 112.294 11.9502 112.561 11.1428C112.824 10.3348 113.077 9.62743 113.31 9.02127C113.102 8.8756 112.869 8.76264 112.62 8.68795C112.372 8.60894 112.11 8.57128 111.836 8.57128C111.375 8.57128 110.95 8.90091 110.566 9.56015C110.178 10.2175 109.813 11.2323 109.467 12.607C109.294 13.2946 109.244 13.8668 109.323 14.3242C109.4 14.7798 109.562 15.0069 109.812 15.0069C109.907 15.0069 110.031 14.9779 110.184 14.9143C110.336 14.8544 110.54 14.7538 110.798 14.6156L111.629 14.144ZM105.404 15.3804C104.716 15.7532 104.061 16.0908 103.438 16.3884C102.612 16.7846 101.848 17.1106 101.146 17.3661C101.001 17.3427 100.869 17.3056 100.755 17.2562C100.641 17.2044 100.531 17.1303 100.423 17.0359C100.225 16.4668 100.108 15.9248 100.077 15.4081C100.045 14.8915 100.094 14.3785 100.222 13.8662C100.345 13.3761 100.492 12.8681 100.661 12.3317C100.832 11.7977 101.014 11.2545 101.219 10.6984L101.779 9.12929L98.9954 9.04349L100.397 8.31697L102.114 8.20833C102.18 8.025 102.283 7.74908 102.418 7.37872C102.78 6.34542 103.06 5.56025 103.259 5.02076L106.352 4.07758C106.19 4.50843 105.981 5.05842 105.734 5.72074C105.432 6.52628 105.272 6.97071 105.241 7.0596L104.84 8.23117H107.522L106.36 9.04288C106.202 9.04288 105.968 9.04658 105.659 9.05769C105.351 9.0688 104.976 9.08794 104.538 9.11016L104.058 10.4805C103.935 10.8348 103.817 11.1879 103.713 11.5311C103.609 11.8749 103.512 12.2267 103.422 12.5823C103.27 13.1891 103.276 13.7384 103.44 14.2292C103.605 14.7193 103.879 14.9625 104.256 14.9625C104.427 14.9625 104.673 14.9094 104.995 14.8057C105.166 14.7483 105.37 14.6724 105.606 14.5773L105.404 15.3804ZM163.784 17.4735C163.989 16.8001 164.236 16.0186 164.533 15.1205C164.829 14.2261 164.994 13.7057 165.038 13.56L165.571 11.9064C165.614 11.7521 165.68 11.5391 165.761 11.27C165.934 10.72 166.042 10.3644 166.083 10.204C166.197 9.75088 166.227 9.43978 166.174 9.27188C166.121 9.10337 165.955 9.02127 165.68 9.02127C165.55 9.02127 165.378 9.033 165.164 9.05893C165.142 9.06139 165.12 9.0651 165.097 9.06818L165.294 8.28981C165.821 8.09599 166.352 7.90957 166.887 7.73427C167.676 7.47625 168.479 7.23675 169.292 7.01577L169.749 7.2028L169.693 7.42008C169.64 7.63427 169.569 7.89908 169.478 8.22068C169.385 8.54289 169.277 8.92066 169.154 9.35028L170.574 8.704C170.646 8.66634 170.753 8.61758 170.901 8.54968C172.355 7.86636 173.607 7.35342 174.661 7.01577C174.749 7.0312 174.83 7.06021 174.904 7.10157C174.98 7.14725 175.057 7.21762 175.136 7.31144C175.074 7.55526 174.998 7.8318 174.9 8.14599C174.803 8.46079 174.675 8.86078 174.519 9.35028L176.409 8.47499C176.477 8.44474 176.607 8.38549 176.791 8.3003C177.862 7.79414 178.867 7.36761 179.808 7.01577C179.964 7.05404 180.085 7.10157 180.17 7.17009C180.256 7.23675 180.335 7.33058 180.398 7.45403C180.284 7.87686 180.16 8.31018 180.026 8.74844C179.89 9.18608 179.736 9.65767 179.56 10.1626L179.088 11.6298C179.009 11.8576 178.935 12.0829 178.87 12.2996C178.804 12.5206 178.744 12.7403 178.687 12.9693C178.537 13.5607 178.493 14.0273 178.55 14.3761C178.607 14.7236 178.75 14.8958 178.986 14.8958C179.095 14.8958 179.3 14.8365 179.601 14.7205C179.794 14.6464 180.06 14.5316 180.403 14.3779L180.202 15.1791C179.633 15.518 179.063 15.8458 178.49 16.1643C177.676 16.6137 176.852 17.0476 176.018 17.4636C175.805 17.4019 175.647 17.3587 175.547 17.3241C175.445 17.2939 175.361 17.2599 175.293 17.2315C175.183 16.8525 175.124 16.5007 175.12 16.1797C175.114 15.8575 175.155 15.5285 175.24 15.1909C175.274 15.0532 175.363 14.7569 175.508 14.3045C175.655 13.8508 175.768 13.5008 175.852 13.2526L176.224 12.1113C176.344 11.7335 176.452 11.3903 176.543 11.0829C176.634 10.7749 176.696 10.5583 176.727 10.4354C176.794 10.1731 176.799 9.95643 176.746 9.78792C176.693 9.6194 176.595 9.53669 176.45 9.53669C176.291 9.53669 176.128 9.55583 175.96 9.59286C175.794 9.62681 175.582 9.69718 175.331 9.79965C175.161 9.87372 174.982 9.95643 174.794 10.0459C174.609 10.1385 174.414 10.2367 174.217 10.3385L173.524 12.4304C173.494 12.5199 173.326 13.0465 173.014 14.0168C172.707 14.9816 172.408 15.8908 172.116 16.7402C171.678 16.9007 171.22 17.0396 170.747 17.1556C170.276 17.2717 169.771 17.3723 169.233 17.4513C169.544 16.355 169.903 15.2137 170.304 14.031C170.356 13.8773 170.395 13.7687 170.416 13.7131L170.875 12.2237C170.968 11.9292 171.083 11.5805 171.217 11.1762C171.351 10.7681 171.427 10.5249 171.449 10.436C171.536 10.0916 171.567 9.84039 171.541 9.6799C171.518 9.51756 171.435 9.43978 171.299 9.43978C171.03 9.43978 170.688 9.51447 170.276 9.66508C169.863 9.81384 169.376 10.0379 168.812 10.3385L168.167 12.3212C168.144 12.3885 168.108 12.5014 168.061 12.6613C167.627 14.0347 167.172 15.3631 166.696 16.6507C166.208 16.8414 165.719 17.0062 165.234 17.1439C164.748 17.2834 164.267 17.3914 163.784 17.4735ZM238.861 15.3902C238.18 15.7594 237.529 16.0952 236.911 16.3884C236.087 16.7846 235.322 17.1106 234.62 17.3661C234.474 17.3427 234.343 17.3056 234.228 17.2562C234.114 17.2044 234.003 17.1303 233.897 17.0359C233.698 16.4668 233.583 15.9248 233.55 15.4081C233.519 14.8915 233.567 14.3785 233.696 13.8662C233.819 13.3761 233.966 12.8681 234.135 12.3317C234.306 11.7977 234.488 11.2545 234.692 10.6984L235.252 9.12929L232.469 9.04349L233.87 8.31697L235.587 8.20833C235.654 8.025 235.757 7.74908 235.892 7.37872C236.253 6.34542 236.533 5.56025 236.732 5.02076L239.825 4.07758C239.663 4.50843 239.455 5.05842 239.207 5.72074C238.906 6.52628 238.745 6.97071 238.714 7.0596L238.314 8.23117H240.996L239.834 9.04288C239.676 9.04288 239.442 9.04658 239.134 9.05769C238.824 9.0688 238.45 9.08794 238.011 9.11016L237.532 10.4805C237.408 10.8348 237.29 11.1879 237.186 11.5311C237.082 11.8749 236.987 12.2267 236.896 12.5823C236.744 13.1891 236.749 13.7384 236.915 14.2292C237.079 14.7193 237.352 14.9625 237.729 14.9625C237.902 14.9625 238.146 14.9094 238.469 14.8057C238.635 14.7489 238.833 14.6761 239.064 14.5841L238.861 15.3902ZM247.474 15.1699C246.911 15.5057 246.346 15.826 245.777 16.1303C245.012 16.5421 244.241 16.9272 243.476 17.2748C243.159 17.3581 242.91 17.4099 242.734 17.4396C242.553 17.4698 242.387 17.484 242.237 17.484C241.225 17.484 240.525 17.1223 240.139 16.3927C239.752 15.6668 239.722 14.6526 240.049 13.3533C240.313 12.3064 240.668 11.3712 241.12 10.5404C241.569 9.70891 242.037 9.11386 242.52 8.74782C242.73 8.59412 243.029 8.41882 243.418 8.22006C243.804 8.02562 244.221 7.83488 244.672 7.65156C245.296 7.39662 245.835 7.20219 246.293 7.07503C246.751 6.94849 247.123 6.88306 247.404 6.88306C247.908 6.88306 248.261 7.04478 248.472 7.36638C248.683 7.68797 248.721 8.12623 248.581 8.67992C248.432 9.27497 248.122 9.80211 247.65 10.2669C247.177 10.7299 246.197 11.3508 244.708 12.1329L242.837 13.0983C242.793 13.8211 242.93 14.3637 243.256 14.7193C243.581 15.0779 244.092 15.2581 244.785 15.2581C245.103 15.2581 245.502 15.1828 245.98 15.0335C246.355 14.9168 246.921 14.697 247.674 14.3742L247.474 15.1699ZM242.899 12.2879C244.027 11.7335 244.81 11.257 245.248 10.8694C245.687 10.4805 245.971 10.033 246.094 9.53731C246.206 9.09411 246.207 8.74042 246.096 8.4861C245.988 8.22808 245.785 8.10031 245.488 8.10031C245.021 8.10031 244.562 8.39598 244.114 8.98362C243.668 9.57064 243.321 10.3472 243.083 11.2996C243.042 11.4731 242.998 11.6477 242.967 11.8163C242.935 11.9848 242.913 12.1416 242.899 12.2879ZM232.349 15.0828C231.373 15.6032 230.453 16.0624 229.591 16.4556C228.73 16.8476 227.918 17.1853 227.16 17.463C227.02 17.4476 226.902 17.4198 226.805 17.3803C226.713 17.3414 226.626 17.2828 226.556 17.2118C226.486 16.968 226.455 16.7001 226.465 16.4112C226.476 16.1211 226.54 15.7538 226.646 15.326C226.704 15.0921 226.802 14.7693 226.93 14.3711C227.058 13.9693 227.199 13.5162 227.372 13.0212L227.858 11.6181C227.966 11.3033 228.06 11.02 228.135 10.7749C228.21 10.5268 228.269 10.3311 228.3 10.204C228.425 9.69903 228.446 9.36324 228.365 9.20398C228.285 9.04535 228.049 8.96448 227.662 8.96448C227.5 8.96448 227.326 8.98115 227.147 9.01263C226.967 9.04411 226.751 9.09843 226.507 9.17374L226.655 8.5898C227.664 8.19105 228.568 7.85834 229.367 7.6065C230.165 7.35465 230.903 7.15404 231.579 7.01515C231.686 7.05342 231.781 7.09725 231.858 7.15404C231.939 7.20589 232.012 7.2812 232.076 7.37872C231.921 7.99291 231.699 8.70461 231.425 9.51447C231.394 9.60521 231.373 9.67619 231.366 9.70891L230.752 11.4416C230.695 11.6107 230.611 11.8459 230.501 12.1453C230.285 12.7588 230.15 13.1699 230.099 13.373C229.977 13.8681 229.938 14.2625 229.988 14.5508C230.039 14.8396 230.164 14.9853 230.362 14.9853C230.5 14.9853 230.708 14.9477 230.977 14.8767C231.253 14.8063 231.789 14.631 232.593 14.3606L232.349 15.0828ZM230.825 6.21456C230.585 5.87815 230.369 5.53927 230.185 5.20039C230.002 4.86274 229.838 4.51584 229.7 4.164C230.067 3.87882 230.463 3.59117 230.882 3.30414C231.298 3.01897 231.738 2.727 232.197 2.44305C232.338 2.78008 232.486 3.10847 232.634 3.41957C232.783 3.73191 232.95 4.03746 233.123 4.32819C232.81 4.64361 232.459 4.96089 232.082 5.27199C231.704 5.58495 231.28 5.89975 230.825 6.21456ZM208.544 15.0828C207.568 15.6032 206.649 16.0624 205.785 16.4556C204.926 16.8476 204.113 17.1853 203.357 17.463C203.216 17.4476 203.097 17.4192 203.002 17.3803C202.908 17.3408 202.821 17.2828 202.751 17.2118C202.682 16.968 202.652 16.7001 202.66 16.4112C202.671 16.1211 202.736 15.7538 202.842 15.326C202.9 15.0921 202.998 14.7699 203.126 14.3711C203.254 13.9699 203.396 13.5162 203.568 13.0212L204.055 11.6181C204.163 11.3033 204.256 11.02 204.331 10.7749C204.407 10.5268 204.466 10.3311 204.497 10.204C204.621 9.69903 204.642 9.36324 204.563 9.20398C204.481 9.04535 204.245 8.96448 203.86 8.96448C203.697 8.96448 203.522 8.98115 203.343 9.01263C203.164 9.04411 202.949 9.09843 202.705 9.17374L202.851 8.5898C203.861 8.19105 204.764 7.86081 205.564 7.6065C206.364 7.3528 207.1 7.15404 207.776 7.01515C207.883 7.05342 207.977 7.09725 208.054 7.15404C208.137 7.20589 208.209 7.2812 208.272 7.37872C208.118 7.99291 207.899 8.70338 207.621 9.51447C207.59 9.60829 207.571 9.67619 207.562 9.70891L206.948 11.4416C206.892 11.6107 206.808 11.8459 206.697 12.1453C206.483 12.7588 206.346 13.1699 206.296 13.373C206.173 13.8681 206.135 14.2625 206.186 14.5508C206.236 14.8396 206.361 14.9853 206.559 14.9853C206.696 14.9853 206.905 14.9477 207.175 14.8767C207.449 14.8063 207.987 14.631 208.79 14.3606L208.544 15.0828ZM207.02 6.21456C206.781 5.87815 206.565 5.53927 206.381 5.20039C206.198 4.86274 206.033 4.51584 205.896 4.164C206.263 3.87882 206.658 3.59055 207.078 3.30414C207.493 3.01773 207.933 2.727 208.394 2.44305C208.534 2.78008 208.681 3.10847 208.829 3.41957C208.979 3.73191 209.145 4.03746 209.318 4.32819C209.006 4.64361 208.654 4.96089 208.278 5.27199C207.899 5.58495 207.476 5.89975 207.02 6.21456ZM185.99 15.0643C185.282 15.5544 184.591 15.9878 183.921 16.3735C183.25 16.7556 182.586 17.0883 181.931 17.3661C181.811 17.3581 181.69 17.3427 181.577 17.3161C181.464 17.2902 181.35 17.2562 181.238 17.2118C180.999 16.7365 180.849 16.284 180.784 15.8532C180.721 15.4192 180.745 14.989 180.853 14.5588C181.123 13.4921 181.444 12.5082 181.817 11.6138C182.19 10.7194 182.554 10.049 182.909 9.60336C183.549 9.18485 184.267 8.76634 185.066 8.3466C185.862 7.92747 186.713 7.51205 187.613 7.10034C187.836 7.067 188.022 7.03614 188.176 7.01824C188.328 6.99972 188.46 6.9917 188.57 6.9917C189.147 6.9917 189.719 7.05651 190.287 7.17935C190.853 7.30218 191.376 7.48304 191.853 7.71452L190.853 8.49227C190.565 9.17374 190.31 9.82434 190.089 10.4459C189.873 11.0675 189.688 11.6768 189.536 12.2755C189.284 13.2749 189.158 13.986 189.158 14.4008C189.163 14.8162 189.283 15.0267 189.523 15.0267C189.681 15.0267 190.345 14.7347 191.516 14.1538L191.683 14.0637L191.489 14.831C190.423 15.5458 189.492 16.11 188.691 16.518C187.895 16.926 187.153 17.2334 186.459 17.4383C186.339 17.371 186.228 17.297 186.119 17.2106C186.015 17.1211 185.908 17.0161 185.795 16.892C185.807 16.6229 185.83 16.3347 185.861 16.0322C185.896 15.7297 185.938 15.4081 185.99 15.0643ZM186.19 14.144C186.547 12.9496 186.855 11.9502 187.122 11.1428C187.386 10.3348 187.639 9.62743 187.872 9.02127C187.662 8.8756 187.43 8.76264 187.181 8.68795C186.934 8.60894 186.671 8.57128 186.397 8.57128C185.936 8.57128 185.512 8.90091 185.127 9.56015C184.739 10.2175 184.374 11.2323 184.028 12.607C183.856 13.2946 183.805 13.8668 183.883 14.3242C183.962 14.7798 184.124 15.0069 184.373 15.0069C184.467 15.0069 184.593 14.9779 184.744 14.9143C184.897 14.8544 185.102 14.7538 185.36 14.6156L186.19 14.144ZM149.893 15.0643C149.185 15.5544 148.495 15.9878 147.823 16.3735C147.153 16.7556 146.488 17.0883 145.834 17.3661C145.713 17.3581 145.593 17.3427 145.48 17.3161C145.367 17.2902 145.253 17.2562 145.141 17.2118C144.901 16.7365 144.751 16.284 144.687 15.8532C144.623 15.4192 144.648 14.989 144.756 14.5588C145.025 13.4921 145.347 12.5082 145.72 11.6138C146.094 10.7194 146.456 10.049 146.811 9.60336C147.452 9.18485 148.17 8.76634 148.968 8.3466C149.765 7.92747 150.615 7.51205 151.516 7.10034C151.739 7.067 151.925 7.03614 152.079 7.01824C152.231 6.99972 152.364 6.9917 152.472 6.9917C153.05 6.9917 153.621 7.05651 154.189 7.17935C154.756 7.30218 155.278 7.48304 155.755 7.71452L154.756 8.49227C154.468 9.17374 154.212 9.82434 153.992 10.4459C153.775 11.0675 153.59 11.6768 153.439 12.2755C153.187 13.2749 153.061 13.986 153.062 14.4008C153.067 14.8162 153.186 15.0267 153.425 15.0267C153.583 15.0267 154.249 14.7347 155.419 14.1538L155.586 14.0637L155.393 14.831C154.326 15.5458 153.394 16.11 152.595 16.518C151.798 16.926 151.056 17.2334 150.362 17.4383C150.243 17.371 150.131 17.297 150.022 17.2106C149.919 17.1211 149.81 17.0161 149.697 16.892C149.709 16.6229 149.733 16.3347 149.763 16.0322C149.798 15.7297 149.841 15.4081 149.893 15.0643ZM150.092 14.144C150.45 12.9496 150.759 11.9502 151.025 11.1428C151.289 10.3348 151.54 9.62743 151.774 9.02127C151.564 8.8756 151.333 8.76264 151.083 8.68795C150.836 8.60894 150.574 8.57128 150.299 8.57128C149.839 8.57128 149.414 8.90091 149.029 9.56015C148.642 10.2175 148.277 11.2323 147.931 12.607C147.758 13.2946 147.708 13.8668 147.786 14.3242C147.865 14.7798 148.026 15.0069 148.275 15.0069C148.371 15.0069 148.495 14.9779 148.648 14.9143C148.8 14.8544 149.005 14.7538 149.262 14.6156L150.092 14.144ZM120.489 22.9999L124.604 10.0274L123.276 10.4768L123.465 9.73175C123.69 9.64533 123.966 9.52928 124.287 9.39225C124.606 9.25336 124.814 9.16695 124.912 9.12929C125.135 8.47129 125.317 7.94414 125.463 7.54662C125.608 7.14663 125.744 6.80528 125.872 6.52134C126.126 6.32443 126.522 6.06641 127.057 5.74667C127.367 5.56149 127.848 5.28927 128.501 4.92323L128.503 4.92509C128.57 4.88496 128.648 4.86089 128.73 4.86089C128.988 4.86089 129.199 5.08372 129.199 5.35779C129.199 5.48371 129.154 5.59914 129.081 5.68679C129.076 5.69297 129.072 5.69914 129.065 5.70593C128.675 6.21085 128.332 7.00034 128.038 8.06698L129.491 7.58489C130.019 7.40095 130.46 7.25959 130.812 7.15095C131.166 7.04602 131.386 6.99293 131.478 6.99293C132.206 6.99293 132.699 7.31885 132.954 7.97007C133.207 8.62128 133.194 9.51447 132.906 10.657C132.651 11.6712 132.336 12.573 131.96 13.3619C131.588 14.1514 131.161 14.8149 130.681 15.3489L130.231 15.5884C128.873 16.2803 127.882 16.8007 127.268 17.1445C127.063 17.1902 126.883 17.2198 126.726 17.2427C126.569 17.2643 126.429 17.276 126.306 17.276C126.133 17.276 125.96 17.2501 125.782 17.2007C125.61 17.1482 125.419 17.0624 125.213 16.947L123.328 23.0005L120.489 22.9999ZM125.824 15.0069C126.004 15.3563 126.239 15.6483 126.533 15.8803C126.828 16.1075 127.08 16.2242 127.295 16.2242C127.75 16.2242 128.212 15.8013 128.681 14.9594C129.15 14.1137 129.578 12.9354 129.959 11.4237C130.179 10.5509 130.196 9.88545 130.01 9.42064C129.824 8.95769 129.449 8.72498 128.882 8.72498C128.675 8.72498 128.481 8.74042 128.297 8.77437C128.112 8.80831 127.933 8.86017 127.757 8.93115C127.592 9.45151 127.29 10.4083 126.853 11.8045C126.417 13.2008 126.074 14.2668 125.824 15.0069ZM132.723 17.3661C132.98 16.4593 133.412 15.068 134.023 13.1897C134.19 12.6693 134.318 12.2724 134.407 12.0033L135.393 8.94288C135.486 8.65832 135.61 8.26142 135.768 7.74908C136.42 5.70223 136.983 4.44856 137.46 3.98807C137.867 3.59549 138.5 3.15353 139.36 2.66342C139.478 2.59675 139.598 2.52885 139.721 2.46281C139.785 2.42947 139.855 2.40972 139.929 2.40972C140.185 2.40972 140.394 2.63194 140.394 2.90415C140.394 3.02452 140.352 3.13748 140.283 3.22328C140.282 3.22452 140.281 3.22637 140.28 3.22884C139.976 3.72203 139.483 4.99052 138.802 7.03676L138.164 8.99782L139.638 8.42931C139.82 8.36265 140.089 8.25771 140.451 8.1108C142.061 7.47502 143.278 7.10034 144.093 6.9917C144.145 7.04478 144.187 7.09663 144.228 7.15712C144.269 7.21638 144.309 7.29478 144.355 7.39601C144.108 8.29105 143.809 9.22682 143.46 10.2077C143.411 10.3453 143.379 10.4428 143.365 10.5021L142.873 12.0033C142.842 12.0965 142.809 12.2014 142.776 12.3169C142.744 12.4304 142.697 12.6169 142.631 12.8792C142.465 13.5372 142.404 14.023 142.44 14.3378C142.477 14.6526 142.62 14.8094 142.868 14.8094C143.023 14.8094 143.418 14.7051 144.052 14.4933L143.82 15.4186C143.065 15.8495 142.433 16.1995 141.924 16.4705C141.159 16.8748 140.463 17.2235 139.825 17.5075C139.688 17.5075 139.558 17.4883 139.438 17.4513C139.316 17.4173 139.209 17.3661 139.113 17.2982C139.005 16.8593 138.942 16.4668 138.928 16.1198C138.912 15.7754 138.942 15.4495 139.018 15.1514C139.067 14.952 139.19 14.5785 139.384 14.0211C139.58 13.4668 139.725 13.0434 139.814 12.7594L140.332 11.1922C140.361 11.1058 140.417 10.941 140.494 10.7058C140.572 10.4663 140.625 10.2786 140.661 10.1398C140.738 9.8336 140.76 9.59348 140.729 9.42558C140.694 9.2583 140.606 9.17497 140.46 9.17497C140.243 9.17497 139.916 9.24164 139.488 9.37373C139.057 9.50397 138.507 9.70953 137.834 9.98668L137.182 11.873C137.148 11.9811 136.964 12.5576 136.637 13.6063C136.308 14.6495 135.98 15.6223 135.659 16.5205L132.723 17.3661ZM202.59 14.6977C201.355 15.4452 200.363 16.0217 199.609 16.4377C198.854 16.8488 198.19 17.1815 197.621 17.4285C197.506 17.4204 197.391 17.4013 197.272 17.368C197.157 17.3346 197.013 17.2822 196.841 17.2075C196.619 16.5779 196.476 15.9865 196.405 15.4334C196.338 14.8761 196.345 14.4273 196.43 14.0866C196.471 13.9248 196.671 13.3014 197.026 12.2125C197.169 11.7854 197.283 11.4484 197.368 11.191L198.436 7.97994C198.508 7.74847 198.617 7.41082 198.76 6.9738C199.455 4.84422 200.029 3.58747 200.484 3.20168C200.841 2.90292 201.361 2.55848 202.041 2.16899C202.362 1.98689 202.696 1.80912 203.041 1.63505C203.044 1.63382 203.048 1.63258 203.05 1.63135C203.052 1.63011 203.053 1.62826 203.056 1.62764C203.098 1.60727 203.147 1.59863 203.196 1.59863C203.387 1.59863 203.543 1.76283 203.543 1.96467C203.543 2.06652 203.503 2.15849 203.439 2.22578C203.115 2.53688 202.572 3.83314 201.812 6.11703C201.742 6.3448 201.684 6.52072 201.638 6.64418L200.357 10.457C200.202 10.9323 200.062 11.3743 199.936 11.7817C199.808 12.1934 199.733 12.444 199.709 12.5378C199.562 13.1255 199.555 13.6674 199.69 14.165C199.828 14.6668 200.042 14.9174 200.339 14.9174C200.49 14.9174 200.752 14.8396 201.122 14.6859C201.495 14.5329 202.05 14.2742 202.789 13.9113L202.59 14.6977ZM253.434 14.997L251.776 15.9729C251.727 15.9995 251.657 16.0439 251.556 16.1044C250.539 16.7032 249.653 17.1704 248.893 17.5068C248.788 17.492 248.687 17.4692 248.591 17.4359C248.497 17.4013 248.406 17.3581 248.318 17.2976C248.152 16.7995 248.067 16.3254 248.06 15.8686C248.052 15.4118 248.12 14.8878 248.27 14.2934C248.532 13.2557 248.861 12.2755 249.255 11.3552C249.648 10.4354 249.962 9.8731 250.201 9.66817C250.442 9.45089 250.99 9.09102 251.852 8.58918C252.715 8.08796 253.666 7.59477 254.702 7.10342C254.787 7.10342 254.9 7.10034 255.042 7.09355C255.186 7.08614 255.285 7.08244 255.347 7.08244C255.356 7.08244 255.376 7.08614 255.409 7.09355C255.523 7.10034 255.642 7.10342 255.765 7.10342C256.236 5.61149 256.595 4.6467 256.836 4.20782C257.19 3.78499 257.848 3.28501 258.81 2.70416C259.225 2.45478 259.665 2.21281 260.135 1.97517C260.175 1.95048 260.223 1.93566 260.274 1.93566C260.432 1.93566 260.561 2.07331 260.561 2.24121C260.561 2.36281 260.492 2.46836 260.394 2.51774C260.218 2.61836 260.046 2.82514 259.877 3.1381C259.63 3.60228 259.216 4.7325 258.633 6.5201L258.013 8.4108C257.778 9.13238 257.571 9.7873 257.391 10.3749C257.211 10.9626 257.079 11.4298 256.993 11.7706C256.714 12.8829 256.584 13.6749 256.604 14.1538C256.624 14.6328 256.796 14.8723 257.12 14.8723C257.236 14.8723 257.431 14.8242 257.701 14.7304C257.975 14.6372 258.438 14.4458 259.094 14.1613L258.781 14.9174C257.955 15.4526 257.149 15.9279 256.362 16.3433C255.574 16.7593 254.795 17.1266 254.025 17.4396C253.866 17.3871 253.731 17.3235 253.622 17.242C253.511 17.163 253.414 17.0544 253.335 16.9124C253.337 16.4451 253.343 16.0711 253.362 15.7865C253.377 15.5026 253.403 15.2365 253.434 14.997ZM255.111 9.00214C254.851 8.83362 254.589 8.70585 254.329 8.62437C254.072 8.54227 253.819 8.49659 253.58 8.49659C253.168 8.49659 252.775 8.83177 252.411 9.49965C252.051 10.1669 251.691 11.1971 251.343 12.5829C251.167 13.2847 251.112 13.8551 251.19 14.289C251.268 14.7236 251.455 14.9402 251.759 14.9402C251.998 14.9402 252.52 14.7125 253.326 14.2526C253.447 14.1773 253.533 14.1292 253.59 14.0989C253.847 13.1335 254.157 12.099 254.505 10.9971C254.579 10.7644 254.625 10.6039 254.646 10.5249L255.111 9.00214ZM74.9406 6.21456C74.6808 5.93 74.4494 5.62322 74.2426 5.29853C74.0357 4.97262 73.8522 4.62509 73.7009 4.25103C74.1196 3.90351 74.5358 3.57759 74.945 3.2813C75.3574 2.98625 75.7805 2.70539 76.2125 2.44429C76.3764 2.74305 76.5403 3.07328 76.7011 3.42451C76.8613 3.77944 77.0265 4.16153 77.1898 4.56892C76.8361 4.88496 76.4729 5.1794 76.1021 5.44853C75.7313 5.71766 75.341 5.97444 74.9406 6.21456ZM69.3368 22.6388C69.2876 22.6647 69.2245 22.6808 69.1659 22.6808C68.9647 22.6808 68.7995 22.5055 68.7995 22.2907C68.7995 22.1734 68.85 22.0691 68.9269 21.9968C69.0221 21.8901 69.1173 21.7518 69.2056 21.582C69.3286 21.3506 69.5329 20.8339 69.816 20.045C70.1042 19.2506 70.422 18.3118 70.7675 17.2346L72.1106 12.9792C72.2702 12.4743 72.4146 12.0144 72.5388 11.6033C72.6643 11.1916 72.7519 10.8885 72.7998 10.6978C72.9442 10.1194 72.972 9.71632 72.8812 9.49225C72.791 9.26448 72.5583 9.15213 72.1888 9.15213C72.0444 9.15213 71.8603 9.17065 71.632 9.21201C71.4069 9.25336 71.1276 9.31262 70.7984 9.39225L71.079 8.68054C71.8956 8.35894 72.7084 8.05587 73.5092 7.77192C74.3119 7.48675 75.114 7.217 75.9047 6.97071C76.0302 7.01515 76.1387 7.07503 76.227 7.15774C76.3165 7.23614 76.3966 7.34107 76.459 7.46514C76.4306 7.58057 76.3878 7.7639 76.3323 8.01019C76.2761 8.26142 76.2314 8.45215 76.1954 8.59412C76.1544 8.75893 75.9867 9.31262 75.6941 10.2478L75.5989 10.5552L74.8258 13.1187C74.7546 13.3613 74.6436 13.7174 74.4973 14.1847C73.3856 17.8513 72.5533 19.9957 71.999 20.6166C71.7045 20.9605 71.0778 21.4629 70.1199 22.1215C69.8671 22.295 69.606 22.4666 69.3368 22.6388Z" fill="#252C69"/>
</g>
<defs>
<clipPath id="clip0_613_7534">
<rect width="262" height="23" fill="white"/>
</clipPath>
</defs>
</svg>
