
        <svg width="26" height="26" viewBox="0 0 26 26" fill="none" xmlns="http://www.w3.org/2000/svg">
<path d="M8.66667 20.1122V16.8558M13 14.6848V20.1122M17.3333 20.1122V12.5139M7.04167 13.0566L8.6302 11.1997C9.65893 9.99711 11.2493 9.43192 12.8062 9.71555V9.71555C14.9626 10.1084 17.1744 9.41671 18.7228 7.86527L18.9583 7.62925M11.35 23.3687H14.65C18.0248 23.3687 19.7121 23.3687 20.895 22.5092C21.2771 22.2317 21.613 21.8957 21.8906 21.5137C22.75 20.3308 22.75 18.6434 22.75 15.2686V11.9301C22.75 8.55532 22.75 6.86794 21.8906 5.68505C21.613 5.30302 21.2771 4.96706 20.895 4.6895C19.7121 3.83008 18.0248 3.83008 14.65 3.83008H11.35C7.97524 3.83008 6.28786 3.83008 5.10497 4.6895C4.72294 4.96706 4.38698 5.30302 4.10942 5.68505C3.25 6.86794 3.25 8.55532 3.25 11.9301V15.2686C3.25 18.6434 3.25 20.3308 4.10942 21.5137C4.38698 21.8957 4.72294 22.2317 5.10497 22.5092C6.28786 23.3687 7.97524 23.3687 11.35 23.3687Z" stroke="#fff" stroke-width="1.5" stroke-linecap="round" stroke-linejoin="round"/>
</svg>
   