<svg width="186" height="158" viewBox="0 0 186 158" fill="none" xmlns="http://www.w3.org/2000/svg">
<path d="M102.386 129.939V129.946H26.626C21.1252 129.946 16.666 125.48 16.666 119.972V23.8641C16.666 18.3559 21.1252 13.8906 26.626 13.8906H151.578C157.079 13.8906 161.538 18.3559 161.538 23.8641V119.972C161.538 125.48 157.079 129.946 151.578 129.946H139.406V129.863L138.261 130.282L137.449 133.528C137.249 134.328 136.794 135.007 136.185 135.489V151.826C136.185 153.579 134.767 155 133.016 155C132.459 155 131.911 154.852 131.429 154.573L120.793 148.407L110.157 154.573C108.642 155.451 106.704 154.933 105.827 153.416C105.547 152.933 105.4 152.385 105.4 151.826V135.489C104.792 135.007 104.336 134.328 104.136 133.528L103.324 130.282L102.386 129.939ZM143.621 124.505H151.578C154.078 124.505 156.105 122.476 156.105 119.972V23.8641C156.105 21.3604 154.078 19.3307 151.578 19.3307H26.626C24.1256 19.3307 22.0987 21.3604 22.0987 23.8641V119.972C22.0987 122.476 24.1256 124.505 26.626 124.505H97.9647L98.4372 121.806L96.0359 119.479C94.7749 118.257 94.5701 116.305 95.5498 114.848L97.4155 112.072L96.1669 108.968C95.5113 107.338 96.1168 105.472 97.6039 104.539L100.436 102.763L100.556 99.419C100.619 97.663 101.93 96.2049 103.668 95.9585L106.976 95.4893L108.444 92.4834C109.215 90.9049 111.005 90.1069 112.692 90.5894L115.906 91.5083L118.468 89.3602C119.813 88.2321 121.773 88.2321 123.118 89.3602L125.68 91.5083L128.893 90.5894C130.58 90.1069 132.37 90.9049 133.141 92.4834L134.609 95.4893L137.918 95.9585C139.655 96.2049 140.966 97.663 141.03 99.419L141.15 102.763L143.982 104.539C145.469 105.472 146.074 107.338 145.419 108.968L144.17 112.072L146.036 114.848C147.016 116.305 146.811 118.257 145.55 119.479L143.148 121.806L143.621 124.505ZM130.753 136.063L130.354 136.035L128.294 138.67C127.212 140.053 125.295 140.461 123.745 139.638L120.793 138.07L117.841 139.638C116.29 140.461 114.374 140.053 113.292 138.67L111.232 136.035L110.833 136.063V147.895L119.205 143.041C120.187 142.472 121.398 142.472 122.381 143.041L130.753 147.895V136.063ZM119.096 132.813C120.157 132.25 121.428 132.25 122.49 132.813L124.951 134.12L126.668 131.924C127.409 130.977 128.57 130.459 129.769 130.542L132.548 130.733L133.225 128.027C133.517 126.861 134.367 125.914 135.496 125.502L138.112 124.545L137.632 121.797C137.424 120.612 137.817 119.402 138.68 118.565L140.682 116.625L139.127 114.311C138.456 113.313 138.323 112.047 138.772 110.931L139.813 108.344L137.452 106.863C136.434 106.224 135.798 105.122 135.755 103.92L135.655 101.132L132.897 100.741C131.707 100.572 130.679 99.8238 130.151 98.7432L128.927 96.2373L126.248 97.0033C125.093 97.3337 123.85 97.069 122.929 96.2967L120.793 94.5059L118.657 96.2967C117.736 97.069 116.492 97.3337 115.337 97.0033L112.659 96.2373L111.435 98.7432C110.907 99.8238 109.878 100.572 108.689 100.741L105.931 101.132L105.831 103.92C105.787 105.122 105.152 106.224 104.134 106.863L101.773 108.344L102.814 110.931C103.262 112.047 103.13 113.313 102.459 114.311L100.903 116.625L102.905 118.565C103.769 119.402 104.161 120.612 103.954 121.797L103.473 124.545L106.09 125.502C107.218 125.914 108.069 126.861 108.361 128.027L109.038 130.733L111.817 130.542C113.015 130.459 114.177 130.977 114.917 131.924L116.635 134.12L119.096 132.813ZM65.5603 34.7442H111.738C113.239 34.7442 114.455 35.962 114.455 37.4643C114.455 38.9665 113.239 40.1843 111.738 40.1843H65.5603C64.0601 40.1843 62.844 38.9665 62.844 37.4643C62.844 35.962 64.0601 34.7442 65.5603 34.7442ZM40.2077 52.8778H137.996C139.497 52.8778 140.713 54.0956 140.713 55.5979C140.713 57.1001 139.497 58.3179 137.996 58.3179H40.2077C38.7075 58.3179 37.4914 57.1001 37.4914 55.5979C37.4914 54.0956 38.7075 52.8778 40.2077 52.8778ZM40.2077 71.0114H137.996C139.497 71.0114 140.713 72.2292 140.713 73.7314C140.713 75.2337 139.497 76.4515 137.996 76.4515H40.2077C38.7075 76.4515 37.4914 75.2337 37.4914 73.7314C37.4914 72.2292 38.7075 71.0114 40.2077 71.0114Z" fill="#787878" fill-opacity="0.4"/>
<path d="M11.9551 10L175.999 147.771" stroke="white" stroke-width="20" stroke-linecap="round"/>
<path d="M4 10.5684L172.626 152.255" stroke="#787878" stroke-opacity="0.4" stroke-width="6.8" stroke-linecap="round"/>
<path d="M33.9609 13.9543C32.4698 13.9543 31.2609 15.1631 31.2609 16.6543C31.2609 18.1455 32.4698 19.3543 33.9609 19.3543V13.9543ZM33.9609 19.3543H51.9451V13.9543H33.9609V19.3543Z" fill="#C9C9C9"/>
<path d="M156.152 120.504C156.152 121.995 157.36 123.204 158.852 123.204C160.343 123.204 161.552 121.995 161.552 120.504H156.152ZM161.552 120.504V102.495H156.152V120.504H161.552Z" fill="#C9C9C9"/>
</svg>
