<svg width="160" height="160" viewBox="0 0 160 160" fill="none" xmlns="http://www.w3.org/2000/svg">
<path d="M144.801 151.866C145.412 152.523 146.19 153.002 147.051 153.254C147.912 153.507 148.825 153.522 149.694 153.299C150.565 153.079 151.36 152.628 151.996 151.994C152.632 151.36 153.085 150.566 153.307 149.695C153.53 148.825 153.514 147.911 153.26 147.049C153.007 146.188 152.526 145.41 151.867 144.799L144.801 151.866ZM144.801 151.866L119.601 126.666M144.801 151.866L119.601 126.666M119.601 126.666H103.834H103.334C103.334 129.73 102.731 132.764 101.558 135.595C100.385 138.426 98.6667 140.998 96.5 143.165C94.3333 145.332 91.761 147.051 88.9301 148.223C86.0992 149.396 83.065 149.999 80.0008 149.999C76.9366 149.999 73.9025 149.396 71.0715 148.223C68.2406 147.051 65.6684 145.332 63.5017 143.165C61.3349 140.998 59.6162 138.426 58.4436 135.595C57.271 132.764 56.6675 129.73 56.6675 126.666M119.601 126.666H56.6675M56.6675 126.666H56.1675H23.4541M56.6675 126.666H23.4541M23.4541 126.666C21.6207 126.67 19.8205 126.176 18.2465 125.236C16.6725 124.295 15.384 122.945 14.5188 121.328C13.6537 119.712 13.2446 117.89 13.3354 116.059C13.4262 114.228 14.0134 112.456 15.0341 110.933M23.4541 126.666L15.0341 110.933M15.0341 110.933L29.7008 88.946L15.0341 110.933ZM151.52 145.159L151.514 145.153L14.8475 8.48646L151.52 145.159ZM151.52 145.159L151.527 145.166M151.52 145.159L151.527 145.166M151.527 145.166C152.12 145.716 152.552 146.415 152.781 147.191C153.009 147.966 153.023 148.788 152.823 149.572C152.623 150.355 152.215 151.069 151.643 151.64C151.071 152.211 150.355 152.616 149.572 152.815L149.57 152.815M151.527 145.166L149.57 152.815M149.57 152.815C148.788 153.015 147.966 153.001 147.191 152.775C146.416 152.548 145.717 152.116 145.167 151.525L145.161 151.519M149.57 152.815L145.161 151.519M145.161 151.519L145.154 151.512M145.161 151.519L145.154 151.512M145.154 151.512L119.954 126.312L119.808 126.166M145.154 151.512L119.808 126.166M119.808 126.166H119.601M119.808 126.166H119.601M119.601 126.166H103.334H102.834M119.601 126.166H102.834M102.834 126.166V126.666M102.834 126.166V126.666M102.834 126.666C102.834 129.665 102.244 132.634 101.096 135.404C99.9486 138.174 98.2667 140.691 96.1464 142.812C94.0261 144.932 91.509 146.614 88.7387 147.761C85.9685 148.909 82.9993 149.499 80.0008 149.499C77.0023 149.499 74.0331 148.909 71.2629 147.761C68.4926 146.614 65.9755 144.932 63.8552 142.812C61.7349 140.691 60.053 138.174 58.9056 135.404C57.7581 132.634 57.1675 129.665 57.1675 126.666V126.166M102.834 126.666L57.1675 126.166M57.1675 126.166H56.6675M57.1675 126.166H56.6675M56.6675 126.166H23.4541H23.4529M56.6675 126.166H23.4529M23.4529 126.166C21.7102 126.17 19.9991 125.7 18.5029 124.807C17.0068 123.913 15.782 122.629 14.9597 121.092C14.1374 119.556 13.7485 117.824 13.8348 116.084C13.9211 114.343 14.4792 112.659 15.4495 111.211L15.4501 111.21M23.4529 126.166L15.4501 111.21M15.4501 111.21L30.1168 89.2235L30.1169 89.2232L15.4501 111.21ZM34.3569 40.7218L34.3138 40.9763C33.9984 42.8358 33.8341 44.7345 33.8341 46.666V76.9257V76.926H33.3341L34.3569 40.7218ZM34.3569 40.7218L34.1744 40.5392M34.3569 40.7218L34.1744 40.5392M34.1744 40.5392L8.48792 14.846C7.64521 14.0023 7.17188 12.8585 7.17188 11.666C7.17188 10.4736 7.64513 9.32997 8.4877 8.48624C9.33143 7.64367 10.4751 7.17042 11.6675 7.17042M34.1744 40.5392L11.6675 7.17042M11.6675 7.17042C12.8599 7.17042 14.0035 7.64367 14.8473 8.48624L11.6675 7.17042ZM43.6877 50.0458L42.8344 49.1925L42.8341 50.3992L42.8275 76.9259V76.9261C42.8292 83.0791 41.0096 89.0949 37.598 94.2154L22.9315 116.202L22.89 116.264L22.8686 116.336L22.8486 116.402L22.8169 116.508L22.8325 116.617L22.8392 116.663L22.8552 116.776L22.9181 116.87L22.9448 116.91L23.0003 116.993L23.0835 117.049L23.1235 117.075L23.2178 117.138L23.3301 117.154L23.3768 117.161L23.4119 117.166H23.4475H109.601H110.808L109.954 116.312L43.6877 50.0458ZM66.6675 126.166H66.1675V126.666C66.1675 130.335 67.6249 133.853 70.2192 136.448C72.8134 139.042 76.332 140.499 80.0008 140.499C83.6696 140.499 87.1882 139.042 89.7824 136.448C92.3767 133.853 93.8341 130.335 93.8341 126.666V126.166H93.3341H66.6675ZM54.4396 24.652L54.4396 24.652L54.4351 24.6556L54.1692 24.8684C53.707 25.2367 53.1769 25.5105 52.609 25.6739C52.041 25.8374 51.4465 25.8874 50.8593 25.8211C50.272 25.7548 49.7036 25.5735 49.1864 25.2875C48.6693 25.0015 48.2135 24.6165 47.8451 24.1544C47.4768 23.6922 47.203 23.1621 47.0396 22.5942C46.8761 22.0263 46.8261 21.4317 46.8924 20.8445L46.3955 20.7884L46.8924 20.8445C46.9587 20.2572 47.14 19.6888 47.426 19.1716C47.712 18.6545 48.097 18.1987 48.5591 17.8303L48.5598 17.8298L48.8888 17.5666C48.8895 17.566 48.8903 17.5654 48.891 17.5649C57.207 11.0632 68.1904 7.16602 80.0008 7.16602C104.356 7.16602 126.167 24.1253 126.167 46.666V76.926C126.167 81.3048 127.463 85.5813 129.891 89.2234L138.745 102.503L138.748 102.508C139.083 102.999 139.318 103.553 139.438 104.135C139.559 104.718 139.562 105.319 139.449 105.903C139.335 106.488 139.107 107.043 138.777 107.539C138.447 108.034 138.023 108.459 137.527 108.789C137.032 109.119 136.477 109.348 135.892 109.462C135.308 109.576 134.707 109.573 134.125 109.453C133.542 109.333 132.988 109.099 132.497 108.763C132.005 108.428 131.584 107.999 131.26 107.5L131.257 107.495L122.403 94.2153L121.987 94.4927L122.403 94.2153C118.99 89.0955 117.168 83.0796 117.167 76.926V46.666C117.167 30.5527 100.973 16.166 80.0008 16.166C70.1387 16.166 61.1164 19.4349 54.4396 24.652Z" fill="#787878" fill-opacity="0.4" stroke="white"/>
</svg>
