<svg width="26" height="26" viewBox="0 0 26 26" fill="none" xmlns="http://www.w3.org/2000/svg">
<path d="M10.1875 10.0784C10.1875 8.58536 11.4467 7.375 13 7.375C14.5533 7.375 15.8125 8.58536 15.8125 10.0784C15.8125 10.98 15.3534 11.7784 14.6476 12.2696C14.2563 12.542 13.7862 12.7038 13.4556 13.0473C12.6742 13.8593 12.4633 15.0856 13.0221 16.125M24.25 13C24.25 19.2132 19.2132 24.25 13 24.25C6.7868 24.25 1.75 19.2132 1.75 13C1.75 6.7868 6.7868 1.75 13 1.75C19.2132 1.75 24.25 6.7868 24.25 13Z" stroke="#FFF2E6" stroke-width="2" stroke-linecap="round" stroke-linejoin="round"/>
</svg>
