<svg width="18" height="18" viewBox="0 0 18 18" fill="none" xmlns="http://www.w3.org/2000/svg">
<g id="refresh">
<path id="Vector" d="M6.75 6.75H3C2.80109 6.75 2.61032 6.67098 2.46967 6.53033C2.32902 6.38968 2.25 6.19891 2.25 6V2.25C2.25 2.05109 2.32902 1.86032 2.46967 1.71967C2.61032 1.57902 2.80109 1.5 3 1.5C3.19891 1.5 3.38968 1.57902 3.53033 1.71967C3.67098 1.86032 3.75 2.05109 3.75 2.25V5.25H6.75C6.94891 5.25 7.13968 5.32902 7.28033 5.46967C7.42098 5.61032 7.5 5.80109 7.5 6C7.5 6.19891 7.42098 6.38968 7.28033 6.53033C7.13968 6.67098 6.94891 6.75 6.75 6.75Z" fill="#FE8100"/>
<path id="Vector_2" d="M9 16.5C8.01509 16.5 7.03982 16.306 6.12987 15.9291C5.21993 15.5522 4.39314 14.9997 3.6967 14.3033C2.29018 12.8968 1.5 10.9891 1.5 9C1.5 8.80109 1.57902 8.61032 1.71967 8.46967C1.86032 8.32902 2.05109 8.25 2.25 8.25C2.44891 8.25 2.63968 8.32902 2.78033 8.46967C2.92098 8.61032 3 8.80109 3 9C3.00052 10.4678 3.53907 11.8845 4.51373 12.982C5.48839 14.0795 6.83154 14.7816 8.28901 14.9556C9.74647 15.1295 11.2171 14.7632 12.4227 13.9259C13.6283 13.0885 14.4851 11.8384 14.831 10.4119C15.1769 8.98545 14.988 7.48167 14.2999 6.18513C13.6118 4.8886 12.4723 3.88928 11.0971 3.37626C9.72183 2.86325 8.20625 2.87214 6.83713 3.40125C5.46801 3.93036 4.34033 4.94299 3.6675 6.2475C3.576 6.42453 3.41792 6.55796 3.22804 6.61845C3.03816 6.67893 2.83203 6.6615 2.655 6.57C2.47797 6.4785 2.34453 6.32042 2.28405 6.13054C2.22357 5.94066 2.241 5.73453 2.3325 5.5575C2.94352 4.37481 3.85832 3.37606 4.98296 2.66381C6.10759 1.95156 7.40154 1.55148 8.73192 1.50464C10.0623 1.45781 11.3812 1.76592 12.5531 2.39732C13.725 3.02873 14.7078 3.96068 15.4005 5.09747C16.0932 6.23427 16.4708 7.53495 16.4946 8.86594C16.5184 10.1969 16.1875 11.5103 15.5359 12.6711C14.8843 13.8319 13.9355 14.7984 12.7868 15.4713C11.6382 16.1442 10.3312 16.4992 9 16.5Z" fill="#FE8100"/>
</g>
</svg>
