
    <svg
      width="30"
      height="30"
      viewBox="0 0 30 30"
      fill="none"
      xmlns="http://www.w3.org/2000/svg"
    >
      <path
        d="M22.6974 11.2735V18.8217C22.6974 19.3313 22.6974 19.5861 22.5989 19.8058C22.5665 19.878 22.5266 19.9465 22.4798 20.0103C22.3375 20.2045 22.116 20.3304 21.673 20.5822L16.0006 23.8063C15.5674 24.0525 15.3508 24.1756 15.1161 24.2C15.0389 24.208 14.9611 24.208 14.8839 24.2C14.6492 24.1756 14.4326 24.0525 13.9994 23.8063L8.32701 20.5822C7.88397 20.3304 7.66245 20.2045 7.52018 20.0103C7.47341 19.9465 7.43351 19.878 7.40113 19.8058C7.30263 19.5861 7.30263 19.3313 7.30263 18.8217V11.2735M26.25 9.55357L15.8467 4.76477C15.4771 4.59462 15.2923 4.50955 15.0969 4.49265C15.0324 4.48707 14.9676 4.48707 14.9031 4.49265C14.7077 4.50955 14.5229 4.59462 14.1533 4.76477L3.75 9.55357L14.1176 14.5728C14.5022 14.759 14.6944 14.8521 14.8987 14.8705C14.9661 14.8766 15.0339 14.8766 15.1013 14.8705C15.3056 14.8521 15.4979 14.759 15.8824 14.5728L26.25 9.55357ZM26.25 9.55357V21.8C26.25 22.2407 26.25 22.4611 26.1735 22.6578C26.1483 22.7226 26.1171 22.785 26.0803 22.8441C25.9689 23.0234 25.7926 23.1556 25.44 23.42L23.4375 24.9219"
        stroke="#fff"
        stroke-width="2"
        stroke-linecap="round"
        stroke-linejoin="round"
      />
    </svg>
  