<svg width="220" height="64" viewBox="0 0 220 64" fill="none" xmlns="http://www.w3.org/2000/svg">
<path fill-rule="evenodd" clip-rule="evenodd" d="M134.128 25.7471H117.612V27.2184C117.612 29.8851 115.582 32 113.183 32C110.784 32 108.754 29.8851 108.754 27.2184V25.7471H85.9647C80.4288 25.7471 76 19.954 76 12.8736C76 5.7931 80.4288 0 85.9647 0H134.128C139.571 0 144 5.7931 144 12.8736C144 19.954 139.571 25.7471 134.128 25.7471Z" fill="#787878" fill-opacity="0.8"/>
<path fill-rule="evenodd" clip-rule="evenodd" d="M115.305 27.2166C115.305 28.504 114.383 29.6074 113.183 29.6074C111.984 29.6074 110.969 28.504 110.969 27.2166V12.9638C111.061 7.63043 115.028 3.30859 120.011 3.30859C124.993 3.30859 128.961 7.72239 128.961 13.0557C128.961 18.3891 124.993 22.8028 120.011 22.8028C119.396 22.8028 118.811 22.7415 118.258 22.6189C117.243 22.3431 116.505 21.5155 116.505 20.3201C116.505 19.1247 117.52 18.0212 118.719 18.0212C118.842 18.0212 118.965 18.0212 119.088 18.0212C119.396 18.0825 119.703 18.1132 120.011 18.1132C122.594 18.1132 124.716 15.8143 124.716 13.0557C124.716 10.2971 122.594 7.99825 120.011 7.99825C117.427 7.99825 115.305 10.2051 115.305 13.0557C115.305 17.776 115.305 22.4963 115.305 27.2166Z" fill="white"/>
<path fill-rule="evenodd" clip-rule="evenodd" d="M104.878 20.3201C104.878 21.6074 105.801 22.6189 107 22.6189C108.2 22.6189 109.215 21.6074 109.215 20.3201V12.9638H109.122C109.122 7.63043 105.155 3.30859 100.172 3.30859C95.1901 3.30859 91.2227 7.72239 91.2227 13.0557C91.2227 18.3891 95.1901 22.8028 100.172 22.8028C100.788 22.8028 101.372 22.7415 101.926 22.6189C102.94 22.3431 103.679 21.5155 103.679 20.3201C103.679 19.1247 102.664 18.0212 101.464 18.0212C101.341 18.0212 101.218 18.0212 101.095 18.0212C100.788 18.0825 100.48 18.1132 100.172 18.1132C97.589 18.1132 95.4669 15.8143 95.4669 13.0557C95.4669 10.2971 97.589 7.99825 100.172 7.99825C102.756 7.99825 104.878 10.2051 104.878 12.9638C104.878 17.7454 104.878 15.5385 104.878 20.3201Z" fill="white"/>
<path fill-rule="evenodd" clip-rule="evenodd" d="M104.991 57.5677C105.267 56.8761 105.52 56.1844 105.75 55.4928C105.98 54.755 106.187 54.0634 106.371 53.4179L106.992 51.6196C107.176 50.928 107.314 50.4438 107.406 50.1671C107.498 49.8905 107.567 49.683 107.613 49.5447C107.705 49.1297 107.728 48.8069 107.682 48.5764C107.636 48.3458 107.544 48.2305 107.406 48.2305C107.314 48.2305 107.061 48.2536 106.647 48.2997C106.279 48.3919 105.957 48.438 105.681 48.438L105.957 47.8156C106.877 47.4006 107.751 47.0317 108.579 46.7089C109.407 46.3862 110.212 46.1326 110.993 45.9481C111.085 45.9942 111.154 46.0634 111.2 46.1556C111.292 46.2478 111.361 46.3401 111.407 46.4323C111.361 46.5706 111.315 46.7089 111.269 46.8473C111.269 47.0317 111.246 47.147 111.2 47.1931C111.2 47.3314 111.177 47.4467 111.131 47.5389C111.085 47.6772 111.039 47.8156 110.993 47.9539L111.89 47.3314C111.936 47.2853 112.051 47.1931 112.235 47.0548C112.787 46.6398 113.293 46.2939 113.753 46.0173C113.891 45.9712 114.029 45.9481 114.167 45.9481C114.259 45.9481 114.374 45.9481 114.512 45.9481C114.696 45.9481 114.903 45.9712 115.133 46.0173C115.317 46.0634 115.524 46.1787 115.754 46.3631L113.96 49.1988C113.684 48.8761 113.408 48.6225 113.132 48.438C112.902 48.2997 112.672 48.2305 112.442 48.2305C112.258 48.2305 112.028 48.2997 111.752 48.438C111.476 48.5764 111.131 48.8069 110.718 49.1297L109.959 51.5504C109.913 51.6427 109.844 51.8963 109.752 52.3112C109.246 53.879 108.786 55.3084 108.372 56.5994C107.774 56.8761 107.199 57.0836 106.647 57.2219C106.095 57.4063 105.543 57.5216 104.991 57.5677ZM30.1355 57.6369C30.5954 56.2997 31.1014 54.7781 31.6533 53.072C31.6993 52.7954 31.7453 52.611 31.7913 52.5187L32.3432 50.7205C32.3892 50.6744 32.4122 50.6282 32.4122 50.5821C32.5502 50.0288 32.6652 49.6369 32.7572 49.4063C32.8491 48.9452 32.8721 48.6225 32.8261 48.438C32.7341 48.2997 32.5502 48.2305 32.2742 48.2305C32.1822 48.2305 32.0212 48.2305 31.7913 48.2305C31.5613 48.2767 31.2623 48.3458 30.8944 48.438L31.1014 47.8156C31.8833 47.4467 32.7112 47.1009 33.585 46.7781C34.4589 46.4553 35.3788 46.1556 36.3447 45.879C36.4367 45.879 36.5057 45.9251 36.5517 46.0173C36.5977 46.0634 36.6667 46.1326 36.7587 46.2248C36.6207 46.6398 36.4827 47.0548 36.3447 47.4697C36.2527 47.8847 36.1377 48.2767 35.9997 48.6455L38.1385 47.6081C38.3225 47.562 38.5524 47.4697 38.8284 47.3314C40.6222 46.4092 41.772 45.902 42.278 45.8098C42.416 45.8559 42.5309 45.902 42.6229 45.9481C42.7149 45.9942 42.8069 46.0865 42.8989 46.2248C42.8989 46.2709 42.8759 46.3631 42.8299 46.5014C42.5079 47.562 42.255 48.3689 42.071 48.9222L41.1051 51.8963C41.1051 51.9424 41.0821 52.0346 41.0361 52.1729C40.9901 52.3112 40.9671 52.4035 40.9671 52.4496C40.7832 53.1873 40.7372 53.7176 40.8292 54.0403C40.9211 54.4092 41.1741 54.5937 41.5881 54.5937C41.864 54.5937 42.485 54.3401 43.4508 53.8329L43.5198 53.7637L43.5888 54.5937C42.7609 55.1009 41.887 55.585 40.9671 56.0461C40.0472 56.5072 39.0584 56.9914 38.0005 57.4986C37.8625 57.4986 37.7245 57.4755 37.5866 57.4294C37.4486 57.3833 37.3336 57.3372 37.2416 57.2911C37.1036 57.0144 37.0116 56.7147 36.9656 56.3919C36.9656 56.0692 37.0346 55.6081 37.1726 55.0086C37.1726 55.0086 37.1956 54.9625 37.2416 54.8703C37.2876 54.7781 37.3796 54.5014 37.5176 54.0403L38.3455 51.3429C38.4834 50.8818 38.5984 50.4669 38.6904 50.098C38.7824 49.7752 38.8514 49.5677 38.8974 49.4755C38.9894 49.1527 38.9894 48.8991 38.8974 48.7147C38.8514 48.5303 38.7134 48.438 38.4834 48.438C38.2995 48.438 38.0925 48.5072 37.8625 48.6455C37.5866 48.7378 37.1496 48.9452 36.5517 49.268L35.6548 49.7522C35.2408 50.9971 34.8499 52.196 34.4819 53.3487C34.114 54.5014 33.769 55.6311 33.4471 56.7378L30.1355 57.6369ZM163.358 57.6369C163.588 56.8991 163.864 56.0231 164.186 55.0086C164.508 54.0403 164.692 53.464 164.738 53.2795L165.359 51.4121C165.405 51.2277 165.474 50.9971 165.566 50.7205C165.75 50.121 165.865 49.7291 165.911 49.5447C166.049 49.0375 166.072 48.6916 165.98 48.5072C165.934 48.3228 165.75 48.2305 165.428 48.2305C165.29 48.2305 165.106 48.2305 164.876 48.2305C164.646 48.2767 164.393 48.3228 164.117 48.3689L164.186 47.6772C165.06 47.3545 165.934 47.0548 166.808 46.7781C167.635 46.4553 168.509 46.1787 169.429 45.9481L169.912 46.1556L169.843 46.4323C169.797 46.6628 169.728 46.9625 169.636 47.3314C169.544 47.6542 169.429 48.0692 169.291 48.5764L170.809 47.8156C170.901 47.8156 171.016 47.7695 171.154 47.6772C172.764 46.8934 174.144 46.317 175.294 45.9481C175.386 45.9481 175.477 45.9712 175.569 46.0173C175.661 46.1095 175.73 46.2017 175.776 46.2939C175.73 46.5706 175.661 46.8703 175.569 47.1931C175.432 47.562 175.294 48.0231 175.156 48.5764L177.225 47.6081C177.271 47.562 177.409 47.4928 177.639 47.4006C178.789 46.8473 179.893 46.3631 180.951 45.9481C181.089 45.9942 181.204 46.0634 181.296 46.1556C181.388 46.2017 181.48 46.2939 181.572 46.4323C181.434 46.8934 181.296 47.3775 181.158 47.8847C181.02 48.3919 180.859 48.9222 180.675 49.4755L180.123 51.1354C180.031 51.366 179.962 51.6196 179.916 51.8963C179.824 52.1268 179.755 52.3804 179.709 52.6571C179.525 53.3026 179.479 53.8098 179.571 54.1787C179.617 54.5937 179.755 54.8012 179.985 54.8012C180.123 54.8012 180.353 54.732 180.675 54.5937C180.997 54.4553 181.526 54.2248 182.262 53.902L182.124 54.5937C181.25 55.147 180.376 55.6772 179.502 56.1844C178.582 56.6916 177.662 57.1758 176.742 57.6369C176.512 57.5908 176.351 57.5447 176.259 57.4986C176.167 57.4524 176.075 57.4294 175.983 57.4294C175.845 56.9683 175.776 56.5764 175.776 56.2536C175.776 55.8847 175.822 55.4928 175.914 55.0778C175.96 54.9395 176.052 54.6167 176.19 54.1095C176.374 53.6023 176.512 53.2104 176.604 52.9337L177.018 51.6888C177.156 51.2277 177.271 50.8357 177.363 50.513C177.455 50.1441 177.524 49.8905 177.57 49.7522C177.616 49.4755 177.616 49.245 177.57 49.0605C177.524 48.8761 177.409 48.7839 177.225 48.7839C177.041 48.7839 176.88 48.8069 176.742 48.853C176.558 48.8991 176.328 48.9683 176.052 49.0605C175.822 49.1527 175.615 49.245 175.432 49.3372C175.248 49.4294 175.041 49.5447 174.811 49.683L174.052 52.0346C174.006 52.1268 173.822 52.7032 173.5 53.7637C173.132 54.8703 172.81 55.9078 172.534 56.8761C172.028 57.0605 171.522 57.1988 171.016 57.2911C170.51 57.4294 169.958 57.5447 169.36 57.6369C169.682 56.3919 170.073 55.1239 170.533 53.8329C170.579 53.6484 170.625 53.5331 170.671 53.487L171.154 51.7579C171.246 51.4352 171.361 51.0432 171.499 50.5821C171.637 50.1671 171.729 49.8905 171.775 49.7522C171.867 49.3833 171.89 49.1066 171.844 48.9222C171.844 48.7378 171.775 48.6455 171.637 48.6455C171.315 48.6455 170.924 48.7378 170.464 48.9222C170.05 49.1066 169.521 49.3602 168.877 49.683L168.187 51.8963C168.141 51.9885 168.095 52.1268 168.049 52.3112C167.589 53.8329 167.107 55.3084 166.601 56.7378C166.049 56.9683 165.497 57.1527 164.945 57.2911C164.439 57.4294 163.91 57.5447 163.358 57.6369ZM5.71249 54.9395C4.93059 55.4928 4.17169 56 3.43578 56.4611C2.69987 56.8761 1.98695 57.245 1.29704 57.5677C1.15905 57.5677 1.02107 57.5447 0.883089 57.4986C0.745106 57.4524 0.63012 57.4063 0.538132 57.3602C0.262166 56.853 0.101188 56.3458 0.0551936 55.8386C-0.0367951 55.3775 -0.013799 54.8934 0.124184 54.3862C0.40015 53.1873 0.745107 52.1037 1.15906 51.1354C1.573 50.121 1.96395 49.3602 2.33191 48.853C3.02182 48.3919 3.80373 47.9308 4.67762 47.4697C5.55151 46.9625 6.49439 46.4784 7.50627 46.0173C7.73624 46.0173 7.94322 45.9942 8.12719 45.9481C8.26518 45.9481 8.40316 45.9481 8.54114 45.9481C9.18506 45.9481 9.80599 46.0173 10.4039 46.1556C11.0478 46.2939 11.6228 46.4784 12.1287 46.7089L11.0248 47.6081C10.7029 48.3919 10.4269 49.1297 10.1969 49.8213C9.96697 50.513 9.75999 51.1816 9.57601 51.8271C9.30005 52.9798 9.16207 53.7867 9.16207 54.2478C9.16207 54.7089 9.30005 54.9395 9.57601 54.9395C9.75999 54.9395 10.4959 54.6167 11.7837 53.9712L11.9217 53.8329L11.7148 54.732C10.5649 55.5159 9.55302 56.1383 8.67913 56.5994C7.80524 57.0605 7.00034 57.4063 6.26443 57.6369C6.12644 57.5447 5.98846 57.4524 5.85048 57.3602C5.75849 57.268 5.6435 57.1527 5.50552 57.0144C5.50552 56.6916 5.52852 56.3689 5.57451 56.0461C5.62051 55.7233 5.6665 55.3545 5.71249 54.9395ZM5.91947 53.9712C6.33342 52.634 6.67837 51.5043 6.95434 50.5821C7.23031 49.6599 7.50627 48.8761 7.78224 48.2305C7.55226 48.0461 7.2993 47.9078 7.02333 47.8156C6.74737 47.7233 6.4714 47.6772 6.19544 47.6772C5.6895 47.6772 5.20655 48.0461 4.74661 48.7839C4.33266 49.5216 3.94171 50.6744 3.57376 52.2421C3.38978 52.9798 3.34379 53.6023 3.43578 54.1095C3.52777 54.6628 3.71174 54.9395 3.98771 54.9395C4.07969 54.9395 4.19468 54.8934 4.33266 54.8012C4.51664 54.755 4.74661 54.6398 5.02258 54.4553L5.91947 53.9712ZM24.1332 55.0086C23.3513 55.562 22.5924 56.0461 21.8565 56.4611C21.1206 56.9222 20.4077 57.2911 19.7178 57.5677C19.5798 57.5677 19.4418 57.5677 19.3038 57.5677C19.2118 57.5216 19.0968 57.4755 18.9589 57.4294C18.6829 56.8761 18.5219 56.3689 18.4759 55.9078C18.3839 55.4006 18.4069 54.9164 18.5449 54.4553C18.8209 53.2565 19.1658 52.1499 19.5798 51.1354C19.9937 50.121 20.3847 49.3833 20.7526 48.9222C21.4885 48.415 22.2934 47.9308 23.1673 47.4697C24.0412 47.0086 24.9611 46.5476 25.927 46.0865C26.157 46.0403 26.3639 46.0173 26.5479 46.0173C26.7319 45.9712 26.8699 45.9481 26.9619 45.9481C27.6058 45.9481 28.2267 46.0173 28.8246 46.1556C29.4686 46.2939 30.0435 46.5014 30.5494 46.7781L29.4456 47.6772C29.1696 48.415 28.8936 49.1297 28.6177 49.8213C28.3877 50.513 28.2037 51.2046 28.0657 51.8963C27.7898 53.0029 27.6518 53.7867 27.6518 54.2478C27.6518 54.7089 27.7668 54.9395 27.9967 54.9395C28.1807 54.9395 28.9166 54.6167 30.2045 53.9712L30.4114 53.902L30.2045 54.732C29.0086 55.562 27.9737 56.2075 27.0999 56.6686C26.226 57.1297 25.4211 57.4755 24.6852 57.7061C24.5472 57.6138 24.4092 57.5216 24.2712 57.4294C24.1792 57.3372 24.0642 57.2219 23.9262 57.0836C23.9262 56.7608 23.9492 56.438 23.9952 56.1153C24.0412 55.7464 24.0872 55.3775 24.1332 55.0086ZM24.3402 53.9712C24.7541 52.634 25.0991 51.5274 25.3751 50.6513C25.697 49.7291 25.973 48.9222 26.203 48.2305C25.973 48.0922 25.72 47.9769 25.4441 47.8847C25.1681 47.7925 24.8921 47.7464 24.6162 47.7464C24.1102 47.7464 23.6503 48.1153 23.2363 48.853C22.7764 49.5908 22.3624 50.7205 21.9945 52.2421C21.8105 53.0259 21.7645 53.6715 21.8565 54.1787C21.9485 54.6859 22.1325 54.9395 22.4084 54.9395C22.5004 54.9395 22.6384 54.9164 22.8224 54.8703C22.9604 54.7781 23.1673 54.6628 23.4433 54.5245L24.3402 53.9712ZM56.8352 55.0086C56.0533 55.562 55.2944 56.0461 54.5585 56.4611C53.8225 56.8761 53.1096 57.245 52.4197 57.5677C52.2817 57.5677 52.1438 57.5447 52.0058 57.4986C51.9138 57.4986 51.7988 57.4755 51.6608 57.4294C51.3848 56.8761 51.2239 56.3689 51.1779 55.9078C51.0859 55.4006 51.1089 54.9164 51.2469 54.4553C51.5228 53.2565 51.8678 52.1499 52.2817 51.1354C52.6957 50.121 53.0866 49.3602 53.4546 48.853C54.1905 48.3919 54.9954 47.9308 55.8693 47.4697C56.7432 47.0086 57.6631 46.5476 58.629 46.0865C58.8589 46.0403 59.0659 45.9942 59.2499 45.9481C59.4338 45.9481 59.5718 45.9481 59.6638 45.9481C60.3077 45.9481 60.9287 46.0173 61.5266 46.1556C62.1705 46.2939 62.7454 46.5014 63.2514 46.7781L62.1475 47.6081C61.8715 48.3919 61.5956 49.1297 61.3196 49.8213C61.0896 50.513 60.8827 51.2046 60.6987 51.8963C60.4227 53.0029 60.3077 53.7867 60.3537 54.2478C60.3537 54.7089 60.4687 54.9395 60.6987 54.9395C60.8827 54.9395 61.6186 54.6167 62.9064 53.9712L63.1134 53.902L62.8374 54.732C61.6876 55.5159 60.6757 56.1383 59.8018 56.5994C58.9279 57.0605 58.123 57.4063 57.3871 57.6369C57.2491 57.5908 57.1111 57.4986 56.9732 57.3602C56.8812 57.268 56.7662 57.1527 56.6282 57.0144C56.6282 56.7378 56.6512 56.415 56.6972 56.0461C56.7432 55.7233 56.7892 55.3775 56.8352 55.0086ZM57.0421 53.9712C57.4561 52.634 57.8011 51.5043 58.077 50.5821C58.399 49.7061 58.6749 48.9222 58.9049 48.2305C58.6749 48.0461 58.422 47.9078 58.146 47.8156C57.87 47.7695 57.5941 47.7464 57.3181 47.7464C56.8122 47.7464 56.3522 48.1153 55.9383 48.853C55.4783 49.5908 55.0644 50.7205 54.6964 52.2421C54.5125 53.0259 54.4665 53.6715 54.5585 54.1787C54.6504 54.6859 54.8344 54.9395 55.1104 54.9395C55.2024 54.9395 55.3404 54.8934 55.5243 54.8012C55.6623 54.755 55.8693 54.6398 56.1453 54.4553L57.0421 53.9712ZM50.281 55.3545C49.4991 55.8156 48.7632 56.2075 48.0733 56.5303C47.1994 56.9452 46.3715 57.3141 45.5896 57.6369C45.4516 57.5908 45.3136 57.5447 45.1756 57.4986C45.0376 57.4524 44.9226 57.3602 44.8307 57.2219C44.6007 56.5764 44.4627 55.9769 44.4167 55.4236C44.3707 54.8242 44.4167 54.2478 44.5547 53.6945C44.6927 53.1412 44.8537 52.5648 45.0376 51.9654C45.2216 51.366 45.4286 50.7666 45.6586 50.1671L46.2795 48.3689L43.2439 48.2997L44.7617 47.4697L46.6244 47.3314C46.7164 47.147 46.8314 46.8473 46.9694 46.4323C47.3833 45.2795 47.7053 44.4035 47.9353 43.804L51.3159 42.6974C51.1319 43.2046 50.9019 43.8271 50.6259 44.5648C50.304 45.487 50.12 45.9942 50.074 46.0865L49.6601 47.4006H52.5577L51.3159 48.2997C51.1319 48.2997 50.8789 48.2997 50.557 48.2997C50.189 48.2997 49.775 48.3228 49.3151 48.3689L48.7632 49.8905C48.6252 50.3055 48.5102 50.6974 48.4182 51.0663C48.2802 51.4352 48.1652 51.8271 48.0733 52.2421C47.8893 52.9337 47.8893 53.5562 48.0733 54.1095C48.2572 54.6628 48.5562 54.9395 48.9701 54.9395C49.1541 54.9395 49.4301 54.8703 49.798 54.732C49.982 54.6859 50.212 54.5937 50.488 54.4553L50.281 55.3545ZM114.167 57.7061C114.351 56.9683 114.604 56.0922 114.926 55.0778C115.248 54.1095 115.432 53.5331 115.478 53.3487L116.099 51.4813C116.145 51.2968 116.214 51.0663 116.306 50.7896C116.49 50.1902 116.605 49.7983 116.651 49.6138C116.789 49.1066 116.812 48.7608 116.72 48.5764C116.674 48.3458 116.513 48.2305 116.237 48.2305C116.099 48.2305 115.892 48.2536 115.616 48.2997C115.616 48.2997 115.593 48.2997 115.547 48.2997L115.823 47.4697C116.375 47.2392 116.95 47.0317 117.548 46.8473C118.422 46.5245 119.295 46.2478 120.169 46.0173L120.652 46.2248L120.583 46.5014C120.537 46.732 120.468 47.0086 120.376 47.3314C120.284 47.7003 120.169 48.1383 120.031 48.6455L121.549 47.8847C121.641 47.8386 121.756 47.7925 121.894 47.7464C123.504 46.9625 124.884 46.3862 126.034 46.0173C126.126 46.0173 126.218 46.0403 126.31 46.0865C126.402 46.1326 126.494 46.2248 126.586 46.3631C126.494 46.6398 126.402 46.9395 126.31 47.2622C126.218 47.6311 126.08 48.0922 125.896 48.6455L127.965 47.6772C128.011 47.6311 128.149 47.562 128.379 47.4697C129.529 46.8703 130.633 46.3862 131.691 46.0173C131.829 46.0634 131.944 46.1095 132.036 46.1556C132.174 46.2478 132.266 46.3631 132.312 46.5014C132.174 46.9625 132.036 47.4467 131.898 47.9539C131.76 48.4611 131.599 48.9914 131.415 49.5447L130.863 51.2046C130.771 51.4352 130.702 51.6888 130.656 51.9654C130.564 52.196 130.495 52.4265 130.449 52.6571C130.265 53.3487 130.219 53.879 130.311 54.2478C130.357 54.6628 130.518 54.8703 130.794 54.8703C130.886 54.8703 131.093 54.8012 131.415 54.6628C131.645 54.5706 131.944 54.4323 132.312 54.2478L132.105 55.147C131.461 55.5159 130.84 55.8847 130.242 56.2536C129.322 56.7608 128.425 57.245 127.551 57.7061C127.321 57.6599 127.137 57.6138 126.999 57.5677C126.908 57.5216 126.816 57.4755 126.724 57.4294C126.586 57.0144 126.517 56.6225 126.517 56.2536C126.517 55.9308 126.563 55.562 126.655 55.147C126.701 55.0086 126.816 54.6859 126.999 54.1787C127.137 53.6715 127.252 53.2795 127.344 53.0029L127.758 51.7579C127.896 51.2968 128.011 50.9049 128.103 50.5821C128.195 50.2133 128.264 49.9597 128.31 49.8213C128.356 49.5447 128.356 49.3141 128.31 49.1297C128.264 48.9452 128.149 48.853 127.965 48.853C127.827 48.853 127.666 48.8761 127.482 48.9222C127.298 48.9683 127.068 49.0375 126.793 49.1297C126.609 49.2219 126.402 49.3141 126.172 49.4063C125.988 49.4986 125.781 49.6138 125.551 49.7522L124.792 52.1037C124.746 52.196 124.562 52.7723 124.24 53.8329C123.918 54.9395 123.596 55.9769 123.274 56.9452C122.768 57.0836 122.262 57.2219 121.756 57.3602C121.25 57.4986 120.698 57.6138 120.1 57.7061C120.422 56.4611 120.813 55.1931 121.273 53.902C121.319 53.7176 121.365 53.5793 121.411 53.487L121.894 51.8271C121.986 51.5043 122.101 51.1124 122.239 50.6513C122.423 50.1902 122.515 49.9135 122.515 49.8213C122.607 49.4524 122.653 49.1758 122.653 48.9914C122.607 48.8069 122.515 48.7147 122.377 48.7147C122.055 48.7147 121.687 48.8069 121.273 48.9914C120.813 49.1297 120.261 49.3833 119.617 49.7522L118.927 51.9654C118.927 52.0576 118.882 52.1729 118.79 52.3112C118.33 53.879 117.847 55.3775 117.341 56.8069C116.789 57.0375 116.26 57.2219 115.754 57.3602C115.202 57.4986 114.673 57.6138 114.167 57.7061ZM196.267 55.4236C195.531 55.8386 194.818 56.2075 194.128 56.5303C193.254 56.9452 192.426 57.3141 191.645 57.6369C191.461 57.5908 191.323 57.5447 191.231 57.4986C191.093 57.4524 190.955 57.3602 190.817 57.2219C190.633 56.5764 190.518 55.9769 190.472 55.4236C190.426 54.8242 190.472 54.2478 190.61 53.6945C190.748 53.1412 190.909 52.5648 191.093 51.9654C191.277 51.366 191.484 50.7666 191.714 50.1671L192.334 48.3689L189.299 48.2997L190.817 47.4697L192.679 47.3314C192.771 47.147 192.886 46.8473 193.024 46.4323C193.438 45.2795 193.737 44.4035 193.921 43.804L197.302 42.6974C197.164 43.2046 196.957 43.8271 196.681 44.5648C196.359 45.487 196.175 45.9942 196.129 46.0865L195.715 47.4006H198.613L197.371 48.2997C197.187 48.2997 196.934 48.2997 196.612 48.2997C196.244 48.2997 195.83 48.3228 195.37 48.3689L194.818 49.8905C194.68 50.3055 194.565 50.6974 194.473 51.0663C194.335 51.4352 194.22 51.8271 194.128 52.2421C193.944 52.9337 193.944 53.5562 194.128 54.1095C194.312 54.6628 194.611 54.9395 195.025 54.9395C195.209 54.9395 195.485 54.8703 195.853 54.732C196.037 54.6859 196.244 54.6167 196.474 54.5245L196.267 55.4236ZM205.719 55.147C205.121 55.5159 204.5 55.8847 203.856 56.2536C203.028 56.7147 202.2 57.1297 201.372 57.4986C201.004 57.5908 200.728 57.6599 200.544 57.7061C200.36 57.7061 200.176 57.7061 199.992 57.7061C198.889 57.7522 198.13 57.3602 197.716 56.5303C197.256 55.7003 197.21 54.5706 197.578 53.1412C197.9 51.9424 198.291 50.8818 198.751 49.9597C199.257 49.0375 199.762 48.3689 200.268 47.9539C200.498 47.7695 200.843 47.562 201.303 47.3314C201.717 47.147 202.177 46.9395 202.683 46.7089C203.327 46.4323 203.902 46.2248 204.408 46.0865C204.914 45.9481 205.328 45.879 205.65 45.879C206.202 45.879 206.593 46.0634 206.823 46.4323C207.053 46.755 207.099 47.2392 206.961 47.8847C206.777 48.5303 206.432 49.1297 205.926 49.683C205.42 50.1902 204.339 50.8818 202.683 51.7579L200.613 52.7954C200.567 53.6254 200.728 54.2478 201.096 54.6628C201.464 55.0317 202.016 55.2161 202.752 55.2161C203.12 55.2161 203.557 55.147 204.063 55.0086C204.477 54.8703 205.098 54.6167 205.926 54.2478L205.719 55.147ZM200.751 51.8963C201.947 51.2968 202.798 50.7666 203.304 50.3055C203.764 49.8905 204.063 49.4063 204.201 48.853C204.339 48.3458 204.339 47.9539 204.201 47.6772C204.109 47.4006 203.902 47.2622 203.58 47.2622C203.074 47.2622 202.568 47.585 202.062 48.2305C201.556 48.8761 201.188 49.7291 200.958 50.7896C200.912 51.0202 200.866 51.2277 200.82 51.4121C200.774 51.5965 200.751 51.7579 200.751 51.8963ZM189.161 55.0778C188.103 55.6311 187.114 56.1383 186.194 56.5994C185.228 57.0144 184.331 57.3833 183.503 57.7061C183.366 57.7061 183.228 57.683 183.09 57.6369C182.998 57.5908 182.906 57.5216 182.814 57.4294C182.768 57.1527 182.745 56.853 182.745 56.5303C182.745 56.2075 182.814 55.8156 182.952 55.3545C182.998 55.0778 183.09 54.7089 183.228 54.2478C183.366 53.7867 183.527 53.2795 183.71 52.7262L184.262 51.2046C184.4 50.8357 184.492 50.513 184.538 50.2363C184.63 49.9597 184.699 49.7522 184.745 49.6138C184.883 49.0144 184.906 48.6225 184.814 48.438C184.722 48.2997 184.469 48.2305 184.055 48.2305C183.871 48.2305 183.687 48.2305 183.503 48.2305C183.32 48.2767 183.09 48.3458 182.814 48.438L182.952 47.8156C184.055 47.3545 185.044 46.9856 185.918 46.7089C186.792 46.3862 187.597 46.1556 188.333 46.0173C188.471 46.0634 188.586 46.1095 188.678 46.1556C188.724 46.2478 188.793 46.3401 188.885 46.4323C188.701 47.1239 188.471 47.9078 188.195 48.7839C188.149 48.9222 188.126 49.0144 188.126 49.0605L187.436 50.9971C187.39 51.1816 187.298 51.4352 187.16 51.7579C186.93 52.4496 186.792 52.9107 186.746 53.1412C186.608 53.6945 186.562 54.1326 186.608 54.4553C186.654 54.7781 186.792 54.9395 187.022 54.9395C187.16 54.9395 187.39 54.8934 187.712 54.8012C187.988 54.755 188.563 54.5706 189.437 54.2478L189.161 55.0778ZM187.505 45.1182C187.229 44.7493 186.999 44.3804 186.815 44.0115C186.585 43.6427 186.401 43.2507 186.263 42.8357C186.677 42.513 187.114 42.1902 187.574 41.8674C188.034 41.5447 188.517 41.2219 189.023 40.8991C189.161 41.268 189.322 41.6369 189.506 42.0058C189.644 42.3746 189.805 42.7205 189.989 43.0432C189.667 43.366 189.299 43.7118 188.885 44.0807C188.471 44.4496 188.011 44.7954 187.505 45.1182ZM163.151 55.0778C162.047 55.6772 161.035 56.1844 160.115 56.5994C159.15 57.0605 158.253 57.4524 157.425 57.7752C157.287 57.7291 157.172 57.683 157.08 57.6369C156.988 57.5908 156.896 57.5216 156.804 57.4294C156.712 57.1988 156.666 56.9222 156.666 56.5994C156.712 56.2305 156.781 55.8156 156.873 55.3545C156.965 55.0778 157.08 54.7089 157.218 54.2478C157.356 53.8329 157.517 53.3487 157.701 52.7954L158.184 51.2046C158.322 50.8357 158.437 50.513 158.529 50.2363C158.621 49.9597 158.69 49.7522 158.736 49.6138C158.828 49.0605 158.851 48.6916 158.805 48.5072C158.713 48.3228 158.437 48.2305 157.977 48.2305C157.793 48.2305 157.609 48.2536 157.425 48.2997C157.241 48.2997 157.011 48.3458 156.735 48.438L156.873 47.8156C157.977 47.3545 158.966 46.9856 159.839 46.7089C160.713 46.4323 161.541 46.2017 162.323 46.0173C162.415 46.0634 162.507 46.1326 162.599 46.2248C162.691 46.2709 162.76 46.3401 162.806 46.4323C162.668 47.1239 162.438 47.9308 162.116 48.853C162.07 48.9452 162.047 49.0144 162.047 49.0605L161.357 50.9971C161.311 51.1816 161.219 51.4352 161.081 51.7579C160.851 52.4496 160.713 52.9107 160.667 53.1412C160.529 53.6945 160.483 54.1326 160.529 54.4553C160.575 54.7781 160.713 54.9395 160.943 54.9395C161.127 54.9395 161.357 54.9164 161.633 54.8703C161.909 54.7781 162.507 54.5706 163.427 54.2478L163.151 55.0778ZM161.426 45.1873C161.196 44.7723 160.966 44.3804 160.736 44.0115C160.552 43.6427 160.391 43.2507 160.253 42.8357C160.621 42.513 161.035 42.1902 161.495 41.8674C161.955 41.5447 162.438 41.245 162.944 40.9683C163.128 41.3372 163.289 41.683 163.427 42.0058C163.611 42.3746 163.795 42.7205 163.979 43.0432C163.611 43.4121 163.22 43.7579 162.806 44.0807C162.392 44.4496 161.932 44.8184 161.426 45.1873ZM138.452 55.0778C137.67 55.6311 136.911 56.1153 136.175 56.5303C135.439 56.9914 134.727 57.3602 134.037 57.6369C133.899 57.6369 133.761 57.6138 133.623 57.5677C133.485 57.5677 133.37 57.5447 133.278 57.4986C133.002 56.9452 132.818 56.438 132.726 55.9769C132.68 55.4697 132.703 54.9856 132.795 54.5245C133.117 53.3256 133.485 52.219 133.899 51.2046C134.313 50.1902 134.704 49.4524 135.072 48.9914C135.761 48.4841 136.543 48 137.417 47.5389C138.291 47.0778 139.234 46.6167 140.246 46.1556C140.476 46.1095 140.683 46.0865 140.867 46.0865C141.005 46.0403 141.143 46.0173 141.281 46.0173C141.925 46.0173 142.546 46.0865 143.143 46.2248C143.787 46.3631 144.362 46.5706 144.868 46.8473L143.764 47.7464C143.442 48.4841 143.166 49.1988 142.937 49.8905C142.707 50.5821 142.5 51.2738 142.316 51.9654C142.04 53.072 141.902 53.8559 141.902 54.317C141.902 54.7781 142.04 55.0086 142.316 55.0086C142.5 55.0086 143.235 54.6859 144.523 54.0403L144.661 53.9712L144.454 54.8012C143.304 55.6311 142.293 56.2767 141.419 56.7378C140.545 57.1527 139.717 57.4755 138.935 57.7061C138.843 57.6599 138.728 57.5908 138.59 57.4986C138.452 57.4063 138.337 57.2911 138.245 57.1527C138.245 56.83 138.268 56.5072 138.314 56.1844C138.36 55.8156 138.406 55.4467 138.452 55.0778ZM138.659 54.0403C139.073 52.7032 139.418 51.5735 139.694 50.6513C139.97 49.7752 140.246 48.9914 140.522 48.2997C140.292 48.1614 140.039 48.0461 139.763 47.9539C139.487 47.8617 139.188 47.8156 138.866 47.8156C138.36 47.8156 137.9 48.1844 137.486 48.9222C137.072 49.6599 136.681 50.7896 136.313 52.3112C136.129 53.0951 136.06 53.7406 136.106 54.2478C136.198 54.755 136.382 55.0086 136.658 55.0086C136.796 55.0086 136.934 54.9856 137.072 54.9395C137.256 54.8473 137.486 54.732 137.762 54.5937L138.659 54.0403ZM98.92 55.0778C98.1381 55.6311 97.3792 56.1153 96.6432 56.5303C95.9073 56.9452 95.1944 57.3141 94.5045 57.6369C94.3665 57.6369 94.2285 57.6138 94.0906 57.5677C93.9986 57.5677 93.8836 57.5216 93.7456 57.4294C93.4696 56.9222 93.3087 56.415 93.2627 55.9078C93.1707 55.4467 93.1937 54.9625 93.3317 54.4553C93.6076 53.3026 93.9526 52.219 94.3665 51.2046C94.7805 50.1902 95.1714 49.4294 95.5394 48.9222C96.2753 48.4611 97.0802 48 97.9541 47.5389C98.828 47.0778 99.7479 46.6167 100.714 46.1556C100.944 46.1095 101.151 46.0634 101.335 46.0173C101.519 46.0173 101.657 46.0173 101.749 46.0173C102.393 46.0173 103.013 46.0865 103.611 46.2248C104.255 46.3631 104.83 46.5706 105.336 46.8473L104.232 47.6772C103.956 48.4611 103.68 49.1988 103.404 49.8905C103.174 50.5821 102.99 51.2507 102.852 51.8963C102.577 53.049 102.439 53.8559 102.439 54.317C102.439 54.7781 102.554 55.0086 102.783 55.0086C102.967 55.0086 103.703 54.6859 104.991 54.0403L105.198 53.902L104.991 54.8012C103.795 55.585 102.76 56.2075 101.887 56.6686C101.013 57.1297 100.208 57.4755 99.4719 57.7061C99.3339 57.6138 99.1959 57.5216 99.0579 57.4294C98.966 57.3372 98.851 57.2219 98.713 57.0836C98.713 56.8069 98.736 56.4841 98.782 56.1153C98.828 55.7925 98.874 55.4467 98.92 55.0778ZM99.1269 54.0403C99.5409 52.7032 99.8858 51.5735 100.162 50.6513C100.484 49.7291 100.76 48.9452 100.99 48.2997C100.76 48.1153 100.507 47.9769 100.231 47.8847C99.9548 47.7925 99.6789 47.7464 99.4029 47.7464C98.897 47.7464 98.437 48.1153 98.0231 48.853C97.5631 49.5908 97.1492 50.7435 96.7812 52.3112C96.5973 53.0951 96.5513 53.7406 96.6432 54.2478C96.7352 54.755 96.9192 55.0086 97.1952 55.0086C97.2872 55.0086 97.4252 54.9625 97.6091 54.8703C97.7471 54.8242 97.9541 54.7089 98.23 54.5245L99.1269 54.0403ZM66.77 64L71.2544 49.4755L69.8056 49.9597L70.0125 49.1297C70.2425 49.0375 70.5415 48.8991 70.9094 48.7147C71.2774 48.5764 71.5074 48.4841 71.5993 48.438C71.8293 47.7003 72.0363 47.1009 72.2203 46.6398C72.3583 46.2248 72.4962 45.8559 72.6342 45.5331C72.9102 45.3026 73.3471 45.0029 73.9451 44.634C74.267 44.4496 74.796 44.1499 75.5319 43.7349C75.6239 43.6888 75.7158 43.6657 75.8078 43.6657C76.0838 43.6657 76.2908 43.9424 76.2908 44.219C76.2908 44.3573 76.2448 44.4726 76.1528 44.5648C76.1528 44.611 76.1528 44.634 76.1528 44.634C75.7388 45.1873 75.3709 46.0634 75.0489 47.2622L76.6357 46.7089C77.1877 46.5245 77.6706 46.3631 78.0845 46.2248C78.4525 46.1326 78.6825 46.0865 78.7745 46.0865C79.5564 46.0865 80.0853 46.4323 80.3613 47.1239C80.6832 47.8617 80.6832 48.8761 80.3613 50.1671C80.0853 51.3199 79.7403 52.3343 79.3264 53.2104C78.9124 54.0865 78.4295 54.8242 77.8776 55.4236L77.3946 55.7003C75.9228 56.4841 74.8419 57.0605 74.152 57.4294C73.9221 57.4755 73.7381 57.5216 73.6001 57.5677C73.4161 57.5677 73.2551 57.5677 73.1172 57.5677C72.9332 57.5677 72.7492 57.5447 72.5652 57.4986C72.3812 57.4524 72.1743 57.3602 71.9443 57.2219L69.8746 64H66.77ZM72.5652 55.0086C72.7952 55.4236 73.0712 55.7695 73.3931 56.0461C73.7151 56.2767 73.9911 56.3919 74.221 56.3919C74.727 56.3919 75.2329 55.9308 75.7388 55.0086C76.2448 54.0403 76.7047 52.7032 77.1187 50.9971C77.3486 50.0288 77.3716 49.2911 77.1877 48.7839C76.9577 48.2767 76.5437 48.0231 75.9458 48.0231C75.7158 48.0231 75.5089 48.0231 75.3249 48.0231C75.0949 48.0692 74.8879 48.1383 74.704 48.2305C74.52 48.83 74.198 49.8905 73.7381 51.4121C73.2321 52.9798 72.8412 54.1787 72.5652 55.0086ZM80.1543 57.7061C80.4303 56.6916 80.8902 55.1239 81.5341 53.0029C81.7181 52.4035 81.8791 51.9654 82.0171 51.6888L83.0519 48.2305C83.1439 47.9078 83.2819 47.4697 83.4659 46.9164C84.2018 44.611 84.8227 43.2046 85.3287 42.6974C85.7886 42.2363 86.4785 41.7291 87.3984 41.1758C87.5364 41.1297 87.6744 41.0605 87.8123 40.9683C87.8583 40.9222 87.9273 40.8991 88.0193 40.8991C88.2953 40.8991 88.5023 41.1758 88.5023 41.4524C88.5023 41.5908 88.4793 41.7061 88.4333 41.7983C88.4333 41.7983 88.4333 41.8213 88.4333 41.8674C88.0653 42.4207 87.5134 43.8271 86.7775 46.0865L86.0876 48.2997L87.6744 47.6772C87.9043 47.585 88.2033 47.4697 88.5712 47.3314C90.365 46.5937 91.6989 46.1787 92.5727 46.0865C92.6187 46.1326 92.6647 46.1787 92.7107 46.2248C92.7567 46.317 92.8027 46.4092 92.8487 46.5014C92.5727 47.5158 92.2508 48.5764 91.8828 49.683C91.8368 49.8213 91.8138 49.9135 91.8138 49.9597L91.2619 51.6888C91.2159 51.781 91.1699 51.8963 91.1239 52.0346C91.1239 52.1729 91.0779 52.3804 90.9859 52.6571C90.802 53.3948 90.733 53.9481 90.779 54.317C90.825 54.6398 90.9859 54.8012 91.2619 54.8012C91.3999 54.8012 91.8138 54.6859 92.5038 54.4553L92.2968 55.4928C91.4689 55.9539 90.779 56.3458 90.227 56.6686C89.3991 57.1297 88.6172 57.5216 87.8813 57.8444C87.7433 57.8444 87.6054 57.8213 87.4674 57.7752C87.3294 57.7291 87.2144 57.6599 87.1224 57.5677C87.0304 57.1066 86.9614 56.6686 86.9155 56.2536C86.9155 55.8847 86.9614 55.5389 87.0534 55.2161C87.0994 54.9856 87.2144 54.5476 87.3984 53.902C87.6284 53.3026 87.7893 52.8415 87.8813 52.5187L88.4333 50.7896C88.4793 50.6513 88.5482 50.4669 88.6402 50.2363C88.7322 49.9597 88.8012 49.7522 88.8472 49.6138C88.9392 49.245 88.9622 48.9683 88.9162 48.7839C88.8702 48.5994 88.7782 48.5072 88.6402 48.5072C88.3643 48.5072 87.9963 48.5764 87.5364 48.7147C87.0764 48.853 86.4785 49.0836 85.7426 49.4063L85.0527 51.5504C85.0067 51.6427 84.7997 52.2882 84.4318 53.487C84.0638 54.6398 83.6959 55.7233 83.3279 56.7378L80.1543 57.7061ZM156.597 54.732C155.263 55.562 154.182 56.2075 153.354 56.6686C152.526 57.1297 151.813 57.4986 151.215 57.7752C151.078 57.7752 150.94 57.7522 150.802 57.7061C150.664 57.6599 150.503 57.5908 150.319 57.4986C150.089 56.8069 149.928 56.1614 149.836 55.562C149.79 54.9164 149.813 54.4092 149.905 54.0403C149.951 53.8559 150.158 53.1412 150.526 51.8963C150.71 51.4352 150.848 51.0663 150.94 50.7896L152.112 47.1931C152.158 46.9164 152.273 46.5476 152.457 46.0865C153.193 43.6888 153.814 42.2594 154.32 41.7983C154.688 41.4755 155.263 41.1066 156.045 40.6916C156.367 40.4611 156.735 40.2536 157.149 40.0692C157.195 40.0231 157.241 40 157.287 40C157.494 40 157.632 40.2075 157.632 40.415C157.632 40.5533 157.609 40.6686 157.563 40.7608C157.195 41.0836 156.597 42.536 155.769 45.1182C155.677 45.3487 155.608 45.5331 155.562 45.6715L154.182 49.9597C153.998 50.4669 153.837 50.951 153.699 51.4121C153.561 51.8732 153.492 52.1729 153.492 52.3112C153.308 52.9568 153.285 53.5562 153.423 54.1095C153.607 54.6628 153.86 54.9395 154.182 54.9395C154.32 54.9395 154.596 54.8473 155.01 54.6628C155.424 54.5245 156.045 54.2478 156.873 53.8329L156.597 54.732ZM212.204 55.0778L210.41 56.1844C210.318 56.1844 210.226 56.2305 210.134 56.3228C209.03 56.9683 208.064 57.4755 207.237 57.8444C207.099 57.8444 206.984 57.8213 206.892 57.7752C206.8 57.7291 206.708 57.683 206.616 57.6369C206.432 57.0836 206.34 56.5533 206.34 56.0461C206.294 55.5389 206.363 54.9395 206.547 54.2478C206.823 53.0951 207.191 52.0115 207.651 50.9971C208.064 49.9366 208.409 49.2911 208.685 49.0605C208.915 48.83 209.513 48.438 210.479 47.8847C211.399 47.3314 212.434 46.7781 213.584 46.2248C213.676 46.2248 213.791 46.2248 213.929 46.2248C214.113 46.2248 214.228 46.2248 214.274 46.2248C214.274 46.2248 214.297 46.2248 214.343 46.2248C214.481 46.2248 214.619 46.2248 214.757 46.2248C215.263 44.5648 215.654 43.4813 215.929 42.9741C216.297 42.513 217.01 41.9597 218.068 41.3141C218.528 41.0375 219.011 40.7608 219.517 40.4841C219.563 40.438 219.609 40.415 219.655 40.415C219.862 40.415 220 40.5533 220 40.7608C220 40.8991 219.931 41.0375 219.793 41.1066C219.609 41.1988 219.425 41.4294 219.241 41.7983C218.965 42.3055 218.505 43.5504 217.861 45.5331L217.171 47.6772C216.941 48.5072 216.734 49.245 216.55 49.8905C216.32 50.536 216.159 51.0432 216.067 51.4121C215.792 52.6571 215.654 53.5562 215.654 54.1095C215.7 54.6628 215.884 54.9395 216.205 54.9395C216.343 54.9395 216.573 54.8703 216.895 54.732C217.171 54.6398 217.677 54.4323 218.413 54.1095L218.068 54.9395C217.148 55.5389 216.251 56.0922 215.378 56.5994C214.55 57.0605 213.699 57.4524 212.825 57.7752C212.641 57.7291 212.503 57.6599 212.411 57.5677C212.273 57.4755 212.158 57.3602 212.066 57.2219C212.066 56.6686 212.089 56.2536 212.135 55.9769C212.135 55.6542 212.158 55.3545 212.204 55.0778ZM213.998 48.3689C213.722 48.1844 213.446 48.0461 213.17 47.9539C212.894 47.8156 212.618 47.7464 212.342 47.7464C211.882 47.7464 211.468 48.1383 211.1 48.9222C210.686 49.6599 210.295 50.8127 209.927 52.3804C209.697 53.1643 209.628 53.7867 209.72 54.2478C209.812 54.755 210.019 55.0086 210.341 55.0086C210.617 55.0086 211.192 54.755 212.066 54.2478C212.204 54.1556 212.296 54.0865 212.342 54.0403C212.664 52.9798 213.009 51.8271 213.377 50.5821C213.469 50.3055 213.515 50.121 213.515 50.0288L213.998 48.3689ZM16.8891 45.2565C16.6131 44.9337 16.3602 44.5879 16.1302 44.219C15.9002 43.8501 15.6933 43.4582 15.5093 43.0432C15.9692 42.6744 16.4292 42.3285 16.8891 42.0058C17.3491 41.6369 17.809 41.3141 18.2689 41.0375C18.4529 41.3602 18.6369 41.7291 18.8209 42.1441C19.0048 42.5591 19.1658 42.9741 19.3038 43.389C18.9359 43.7579 18.5449 44.1037 18.131 44.4265C17.717 44.7032 17.3031 44.9798 16.8891 45.2565ZM10.7489 63.6542C10.7029 63.7003 10.6339 63.7233 10.5419 63.7233C10.3349 63.7233 10.1279 63.5159 10.1279 63.3084C10.1279 63.17 10.1739 63.0548 10.2659 62.9625C10.4039 62.8242 10.5189 62.6628 10.6109 62.4784C10.7489 62.2017 10.9788 61.6254 11.3008 60.7493C11.5768 59.8732 11.9217 58.8357 12.3357 57.6369L13.7845 52.8646C13.9685 52.2651 14.1295 51.7349 14.2674 51.2738C14.4054 50.8127 14.4974 50.4899 14.5434 50.3055C14.6814 49.6599 14.7044 49.1988 14.6124 48.9222C14.5204 48.6916 14.2674 48.5764 13.8535 48.5764C13.7155 48.5764 13.5085 48.5994 13.2326 48.6455C13.0026 48.6916 12.7036 48.7608 12.3357 48.853L12.6806 48.0231C13.5545 47.6542 14.4284 47.3084 15.3023 46.9856C16.1762 46.6628 17.0501 46.3631 17.924 46.0865C18.062 46.1326 18.177 46.2017 18.2689 46.2939C18.3609 46.3862 18.4529 46.5014 18.5449 46.6398C18.4989 46.7781 18.4529 46.9856 18.4069 47.2622C18.3609 47.5389 18.3149 47.7695 18.2689 47.9539C18.2229 48.1383 18.039 48.7378 17.717 49.7522L17.579 50.098L16.7511 53.0029C16.6591 53.2795 16.5442 53.6715 16.4062 54.1787C15.1643 58.2824 14.2444 60.6801 13.6465 61.3718C13.3246 61.7867 12.6346 62.3631 11.5768 63.1009C11.3008 63.2853 11.0248 63.4697 10.7489 63.6542Z" fill="#787878" fill-opacity="0.8"/>
</svg>
